<?xml version="1.0" encoding="UTF-8"?>
<svg id="g-protestOne-Artboard_1-interactions-img" data-name="Layer 1" xmlns="http://www.w3.org/2000/svg" baseProfile="tiny" version="1.2" viewBox="0 0 1958.312 1572.888">
  <polygon id="plazaPink" style="opacity:0.21;" points="848.643 875.927 954.643 693.927 1175.507 815.555 1187.998 860.209 1101.706 1011.955 1001.911 954.178 848.643 875.927" fill="#ff7f7f" fill-rule="evenodd" stroke-width="0"/>
  <g id="bookshelves">
    <line x1="1123.303" y1="895.833" x2="1106.788" y2="879.715" fill="none" stroke="#a67c52" stroke-miterlimit="10" stroke-width="7"/>
    <line x1="1102.408" y1="872.85" x2="1096.705" y2="850.489" fill="none" stroke="#a67c52" stroke-miterlimit="10" stroke-width="7"/>
    <line x1="1094.513" y1="841.349" x2="1093.744" y2="818.285" fill="none" stroke="#a67c52" stroke-miterlimit="10" stroke-width="7"/>
  </g>
  <g id="bookshelves_a">
    <g>
      <path d="M969.77,859.587v1.473h-3.764v-17.299h3.764v6.756c.818-1.146,1.987-2.174,3.834-2.174,2.828,0,4.792,2.174,4.792,6.475s-1.987,6.429-4.839,6.429c-1.684,0-2.852-.608-3.787-1.66ZM974.632,854.841c0-2.081-.725-3.39-2.407-3.39-.959,0-1.824.584-2.455,1.216v4.605c.818.771,1.496,1.146,2.502,1.146,1.565,0,2.36-1.309,2.36-3.577Z" fill="#000" stroke-width="0"/>
      <path d="M979.912,854.841c0-4.886,3.343-6.499,6.382-6.499,3.016,0,6.358,1.613,6.358,6.499,0,4.839-3.343,6.476-6.358,6.476s-6.382-1.637-6.382-6.476ZM988.889,854.865c0-2.081-.725-3.764-2.595-3.764-1.8,0-2.618,1.52-2.618,3.764,0,2.081.701,3.811,2.618,3.811,1.776,0,2.595-1.543,2.595-3.811Z" fill="#000" stroke-width="0"/>
      <path d="M994.146,854.841c0-4.886,3.343-6.499,6.382-6.499,3.016,0,6.358,1.613,6.358,6.499,0,4.839-3.343,6.476-6.358,6.476s-6.382-1.637-6.382-6.476ZM1003.122,854.865c0-2.081-.725-3.764-2.595-3.764-1.8,0-2.618,1.52-2.618,3.764,0,2.081.701,3.811,2.618,3.811,1.776,0,2.595-1.543,2.595-3.811Z" fill="#000" stroke-width="0"/>
      <path d="M1009.057,843.761h3.764v9.491l3.881-4.652h4.044l-4.067,4.652,4.301,7.808h-3.881l-2.758-5.073-1.52,1.707v3.366h-3.764v-17.299Z" fill="#000" stroke-width="0"/>
      <path d="M1021.396,859.4l1.496-2.104c1.123.982,2.806,1.613,4.325,1.613,1.169,0,1.987-.397,1.987-1.216,0-.865-.654-1.192-2.361-1.496-2.361-.421-4.886-.982-4.886-3.904,0-2.501,2.058-3.951,4.839-3.951,2.549,0,4.091.654,5.471,1.753l-1.473,2.127c-1.263-.865-2.502-1.356-3.67-1.356-1.076,0-1.684.421-1.684,1.099,0,.748.678,1.052,2.221,1.333,2.455.42,5.049.981,5.049,3.81,0,3.016-2.617,4.208-5.493,4.208-2.735,0-4.559-.842-5.821-1.917Z" fill="#000" stroke-width="0"/>
      <path d="M1034.789,843.761h3.764v6.803c.748-.982,2.128-2.221,4.302-2.221,2.128,0,3.647,1.052,3.647,3.624v9.093h-3.764v-7.901c0-1.122-.422-1.707-1.449-1.707s-1.895.515-2.736,1.239v8.369h-3.764v-17.299Z" fill="#000" stroke-width="0"/>
      <path d="M1048.556,854.841c0-4.839,3.693-6.499,6.265-6.499s5.728,1.286,5.728,6.943v.561h-8.252c.187,2.057,1.333,2.852,2.898,2.852,1.474,0,2.853-.725,3.694-1.496l1.449,2.244c-1.449,1.239-3.25,1.87-5.424,1.87-3.25,0-6.358-1.66-6.358-6.476ZM1057.182,853.626c-.188-1.753-.982-2.595-2.385-2.595-1.168,0-2.174.771-2.454,2.595h4.839Z" fill="#000" stroke-width="0"/>
      <path d="M1062.859,843.761h3.74v17.299h-3.74v-17.299Z" fill="#000" stroke-width="0"/>
      <path d="M1070.713,851.335h-2.081v-2.735h2.081v-.865c0-2.081.631-4.067,4.324-4.067.725,0,2.057.117,2.268.164v2.618c-.188-.047-.725-.093-1.099-.093-.911,0-1.753.164-1.753,1.496v.748h2.711v2.735h-2.711v9.725h-3.74v-9.725Z" fill="#000" stroke-width="0"/>
      <path d="M926.555,876.647h3.786l1.075,4.465c.328,1.309.538,2.197.818,3.81h.047c.304-1.636.514-2.548.865-3.904l1.075-4.371h2.922l1.146,4.441c.374,1.309.561,2.221.889,3.833h.047c.303-1.589.514-2.501.864-3.787l1.146-4.488h3.343l-3.646,12.459h-3.483l-1.87-7.597h-.046l-1.871,7.597h-3.459l-3.646-12.459Z" fill="#000" stroke-width="0"/>
      <path d="M944.878,885.927c0-2.875,2.431-4.465,7.901-4.909v-.304c0-.912-.468-1.496-1.684-1.496-1.59,0-2.945.654-4.091,1.543l-1.589-2.151c1.238-1.122,3.108-2.221,6.218-2.221,3.413,0,4.815,1.683,4.815,4.886v4.792c0,1.496.094,2.408.351,3.039h-3.74c-.163-.514-.28-1.122-.28-1.823-1.146,1.286-2.502,2.01-4.348,2.01-1.918,0-3.554-1.239-3.554-3.366ZM952.779,885.39v-2.314c-2.969.304-4.231,1.052-4.231,2.197,0,.795.562,1.192,1.38,1.192,1.309,0,2.221-.444,2.852-1.075Z" fill="#000" stroke-width="0"/>
      <path d="M959.322,871.808h3.74v17.299h-3.74v-17.299Z" fill="#000" stroke-width="0"/>
      <path d="M966.193,871.808h3.74v17.299h-3.74v-17.299Z" fill="#000" stroke-width="0"/>
      <path d="M972.012,887.447l1.496-2.104c1.123.982,2.806,1.613,4.325,1.613,1.169,0,1.987-.397,1.987-1.216,0-.865-.654-1.192-2.361-1.496-2.361-.421-4.886-.982-4.886-3.904,0-2.501,2.058-3.951,4.839-3.951,2.549,0,4.091.654,5.471,1.753l-1.473,2.127c-1.263-.865-2.502-1.356-3.67-1.356-1.076,0-1.684.421-1.684,1.099,0,.748.678,1.052,2.221,1.333,2.455.42,5.049.981,5.049,3.81,0,3.016-2.617,4.208-5.493,4.208-2.735,0-4.559-.842-5.821-1.917Z" fill="#000" stroke-width="0"/>
      <path d="M991.014,882.888c0-4.839,3.693-6.499,6.266-6.499s5.727,1.286,5.727,6.943v.561h-8.252c.188,2.057,1.333,2.852,2.899,2.852,1.473,0,2.852-.725,3.693-1.496l1.449,2.244c-1.449,1.239-3.249,1.87-5.423,1.87-3.25,0-6.359-1.66-6.359-6.476ZM999.641,881.673c-.188-1.753-.982-2.595-2.385-2.595-1.169,0-2.174.771-2.455,2.595h4.84Z" fill="#000" stroke-width="0"/>
      <path d="M1005.178,876.647h3.764v2.081h.023c.678-1.052,1.87-2.338,4.208-2.338h.116l-.047,3.343c-.14-.023-.748-.07-.981-.07-1.496,0-2.618.795-3.319,1.707v7.738h-3.764v-12.459Z" fill="#000" stroke-width="0"/>
      <path d="M1013.873,882.888c0-4.839,3.693-6.499,6.265-6.499s5.728,1.286,5.728,6.943v.561h-8.252c.187,2.057,1.332,2.852,2.898,2.852,1.473,0,2.852-.725,3.693-1.496l1.449,2.244c-1.449,1.239-3.25,1.87-5.424,1.87-3.249,0-6.357-1.66-6.357-6.476ZM1022.498,881.673c-.187-1.753-.981-2.595-2.384-2.595-1.169,0-2.175.771-2.454,2.595h4.838Z" fill="#000" stroke-width="0"/>
      <path d="M1027.358,882.888c0-4.979,3.53-6.499,6.288-6.499,3.39,0,4.699,1.8,5.424,3.811l-3.156,1.052c-.49-1.59-1.215-2.104-2.314-2.104-1.52,0-2.478,1.286-2.478,3.764,0,2.221.701,3.811,2.431,3.811,1.006,0,1.918-.538,2.455-2.221l3.109,1.075c-.795,1.94-2.338,3.787-5.635,3.787-2.922,0-6.124-1.637-6.124-6.476Z" fill="#000" stroke-width="0"/>
      <path d="M1042.014,885.6v-6.218h-2.081v-2.735h2.081v-4.278h3.74v4.278h3.202v2.735h-3.202v5.4c0,1.333.373,1.753,1.729,1.753.421,0,.981-.047,1.239-.141v2.688c-.281.07-1.66.187-2.479.187-3.693,0-4.23-1.333-4.23-3.67Z" fill="#000" stroke-width="0"/>
      <path d="M1050.31,882.888c0-4.839,3.693-6.499,6.265-6.499s5.728,1.286,5.728,6.943v.561h-8.252c.187,2.057,1.333,2.852,2.898,2.852,1.474,0,2.853-.725,3.694-1.496l1.449,2.244c-1.449,1.239-3.25,1.87-5.424,1.87-3.25,0-6.358-1.66-6.358-6.476ZM1058.936,881.673c-.188-1.753-.982-2.595-2.385-2.595-1.168,0-2.174.771-2.454,2.595h4.839Z" fill="#000" stroke-width="0"/>
      <path d="M1063.795,882.982c0-4.301,1.987-6.592,4.84-6.592,1.683,0,2.898.608,3.787,1.823v-6.405h3.764v14.26c0,1.496.093,2.408.373,3.039h-3.857c-.163-.304-.279-1.239-.279-1.87-.818,1.122-1.987,2.057-3.834,2.057-2.829,0-4.793-2.01-4.793-6.312ZM1072.422,885.25v-4.605c-.818-.771-1.496-1.146-2.479-1.146-1.566,0-2.385,1.192-2.385,3.46,0,2.081.748,3.506,2.432,3.506.959,0,1.823-.584,2.432-1.215Z" fill="#000" stroke-width="0"/>
    </g>
    <g>
      <path d="M803.533,749.838c0-2.952,2.496-4.584,8.112-5.041v-.312c0-.936-.479-1.536-1.728-1.536-1.633,0-3.025.672-4.201,1.584l-1.632-2.208c1.272-1.152,3.192-2.28,6.384-2.28,3.505,0,4.945,1.728,4.945,5.017v4.92c0,1.536.096,2.472.359,3.12h-3.84c-.168-.528-.288-1.152-.288-1.872-1.177,1.32-2.568,2.064-4.464,2.064-1.969,0-3.648-1.272-3.648-3.456ZM811.646,749.286v-2.376c-3.048.312-4.345,1.08-4.345,2.256,0,.816.576,1.224,1.416,1.224,1.345,0,2.281-.456,2.929-1.104Z" fill="#000" stroke-width="0"/>
      <path d="M818.221,740.31h3.865v1.944c.84-1.152,2.039-2.208,3.936-2.208,2.904,0,4.92,2.232,4.92,6.648s-2.039,6.601-4.968,6.601c-1.728,0-2.929-.624-3.888-1.704v6.312h-3.865v-17.593ZM827.078,746.718c0-2.136-.744-3.48-2.473-3.48-.984,0-1.872.6-2.52,1.248v4.729c.84.792,1.535,1.176,2.567,1.176,1.608,0,2.425-1.344,2.425-3.672Z" fill="#000" stroke-width="0"/>
      <path d="M833.197,740.31h3.863v1.944c.84-1.152,2.041-2.208,3.937-2.208,2.904,0,4.921,2.232,4.921,6.648s-2.041,6.601-4.969,6.601c-1.729,0-2.928-.624-3.889-1.704v6.312h-3.863v-17.593ZM842.053,746.718c0-2.136-.744-3.48-2.472-3.48-.983,0-1.872.6-2.521,1.248v4.729c.84.792,1.537,1.176,2.568,1.176,1.608,0,2.424-1.344,2.424-3.672Z" fill="#000" stroke-width="0"/>
      <path d="M848.172,740.31h3.865v2.136h.023c.695-1.08,1.92-2.4,4.32-2.4h.12l-.048,3.432c-.145-.024-.769-.072-1.008-.072-1.537,0-2.689.816-3.408,1.752v7.945h-3.865v-12.793Z" fill="#000" stroke-width="0"/>
      <path d="M857.268,746.718c0-5.016,3.433-6.672,6.553-6.672,3.097,0,6.529,1.656,6.529,6.672,0,4.969-3.433,6.649-6.529,6.649s-6.553-1.68-6.553-6.649ZM866.484,746.742c0-2.136-.744-3.865-2.664-3.865-1.848,0-2.688,1.561-2.688,3.865,0,2.136.72,3.912,2.688,3.912,1.824,0,2.664-1.584,2.664-3.912Z" fill="#000" stroke-width="0"/>
      <path d="M874.932,746.502l-4.08-6.192h4.057l2.209,3.528,2.088-3.528h3.888l-4.128,6.192,4.32,6.601h-4.033l-2.447-3.864-2.377,3.864h-3.888l4.392-6.601Z" fill="#000" stroke-width="0"/>
      <path d="M884.748,749.382h4.128v3.72h-4.128v-3.72Z" fill="#000" stroke-width="0"/>
      <path d="M896.556,749.838c0-2.952,2.496-4.584,8.112-5.041v-.312c0-.936-.479-1.536-1.728-1.536-1.632,0-3.024.672-4.2,1.584l-1.633-2.208c1.272-1.152,3.192-2.28,6.385-2.28,3.504,0,4.944,1.728,4.944,5.017v4.92c0,1.536.097,2.472.36,3.12h-3.84c-.168-.528-.289-1.152-.289-1.872-1.176,1.32-2.568,2.064-4.464,2.064-1.968,0-3.648-1.272-3.648-3.456ZM904.668,749.286v-2.376c-3.048.312-4.344,1.08-4.344,2.256,0,.816.576,1.224,1.416,1.224,1.344,0,2.28-.456,2.928-1.104Z" fill="#000" stroke-width="0"/>
      <path d="M911.244,740.31h3.863v2.136h.024c.696-1.08,1.92-2.4,4.32-2.4h.12l-.049,3.432c-.144-.024-.768-.072-1.008-.072-1.535,0-2.688.816-3.408,1.752v7.945h-3.863v-12.793Z" fill="#000" stroke-width="0"/>
      <path d="M920.172,746.718c0-4.968,3.793-6.672,6.433-6.672s5.88,1.32,5.88,7.128v.576h-8.473c.192,2.112,1.369,2.928,2.977,2.928,1.512,0,2.928-.744,3.793-1.536l1.488,2.304c-1.488,1.272-3.337,1.92-5.569,1.92-3.336,0-6.528-1.704-6.528-6.649ZM929.029,745.47c-.193-1.8-1.009-2.664-2.449-2.664-1.199,0-2.232.792-2.52,2.664h4.969Z" fill="#000" stroke-width="0"/>
      <path d="M933.732,749.838c0-2.952,2.496-4.584,8.112-5.041v-.312c0-.936-.479-1.536-1.728-1.536-1.633,0-3.025.672-4.201,1.584l-1.632-2.208c1.272-1.152,3.192-2.28,6.384-2.28,3.505,0,4.945,1.728,4.945,5.017v4.92c0,1.536.096,2.472.359,3.12h-3.84c-.168-.528-.288-1.152-.288-1.872-1.177,1.32-2.568,2.064-4.464,2.064-1.969,0-3.648-1.272-3.648-3.456ZM941.845,749.286v-2.376c-3.048.312-4.345,1.08-4.345,2.256,0,.816.576,1.224,1.416,1.224,1.345,0,2.281-.456,2.929-1.104Z" fill="#000" stroke-width="0"/>
      <path d="M954.18,746.718c0-5.016,3.432-6.672,6.553-6.672,3.096,0,6.528,1.656,6.528,6.672,0,4.969-3.433,6.649-6.528,6.649s-6.553-1.68-6.553-6.649ZM963.396,746.742c0-2.136-.744-3.865-2.664-3.865-1.848,0-2.688,1.561-2.688,3.865,0,2.136.72,3.912,2.688,3.912,1.824,0,2.664-1.584,2.664-3.912Z" fill="#000" stroke-width="0"/>
      <path d="M970.404,743.118h-2.137v-2.808h2.137v-.888c0-2.136.647-4.176,4.439-4.176.744,0,2.113.12,2.328.168v2.688c-.191-.048-.744-.096-1.127-.096-.937,0-1.801.168-1.801,1.536v.768h2.784v2.808h-2.784v9.985h-3.84v-9.985Z" fill="#000" stroke-width="0"/>
      <path d="M846.996,775.518c0-5.016,3.433-6.672,6.553-6.672,3.097,0,6.529,1.656,6.529,6.672,0,4.969-3.433,6.649-6.529,6.649s-6.553-1.68-6.553-6.649ZM856.213,775.542c0-2.136-.744-3.865-2.664-3.865-1.848,0-2.688,1.561-2.688,3.865,0,2.136.72,3.912,2.688,3.912,1.824,0,2.664-1.584,2.664-3.912Z" fill="#000" stroke-width="0"/>
      <path d="M861.612,775.518c0-5.112,3.624-6.672,6.456-6.672,3.48,0,4.824,1.848,5.568,3.912l-3.24,1.081c-.504-1.632-1.248-2.161-2.375-2.161-1.561,0-2.545,1.32-2.545,3.865,0,2.28.721,3.912,2.496,3.912,1.032,0,1.969-.552,2.521-2.28l3.192,1.104c-.816,1.992-2.4,3.889-5.785,3.889-3,0-6.288-1.68-6.288-6.649Z" fill="#000" stroke-width="0"/>
      <path d="M874.788,775.518c0-5.112,3.624-6.672,6.456-6.672,3.48,0,4.824,1.848,5.568,3.912l-3.24,1.081c-.504-1.632-1.248-2.161-2.375-2.161-1.561,0-2.545,1.32-2.545,3.865,0,2.28.721,3.912,2.496,3.912,1.032,0,1.969-.552,2.521-2.28l3.192,1.104c-.816,1.992-2.4,3.889-5.785,3.889-3,0-6.288-1.68-6.288-6.649Z" fill="#000" stroke-width="0"/>
      <path d="M888.684,778.446v-9.337h3.865v8.208c0,1.152.432,1.776,1.512,1.776,1.031,0,1.92-.552,2.784-1.296v-8.688h3.864v12.793h-3.864v-1.992c-.769.984-2.185,2.256-4.417,2.256-2.184,0-3.744-1.08-3.744-3.72Z" fill="#000" stroke-width="0"/>
      <path d="M903.637,769.109h3.863v1.944c.84-1.152,2.041-2.208,3.937-2.208,2.904,0,4.921,2.232,4.921,6.648s-2.041,6.601-4.969,6.601c-1.729,0-2.928-.624-3.889-1.704v6.312h-3.863v-17.593ZM912.492,775.518c0-2.136-.744-3.48-2.472-3.48-.983,0-1.872.6-2.521,1.248v4.729c.84.792,1.537,1.176,2.568,1.176,1.608,0,2.424-1.344,2.424-3.672Z" fill="#000" stroke-width="0"/>
      <path d="M917.532,778.638c0-2.952,2.496-4.584,8.112-5.041v-.312c0-.936-.479-1.536-1.728-1.536-1.632,0-3.024.672-4.2,1.584l-1.633-2.208c1.272-1.152,3.192-2.28,6.385-2.28,3.504,0,4.944,1.728,4.944,5.017v4.92c0,1.536.097,2.472.36,3.12h-3.84c-.168-.528-.289-1.152-.289-1.872-1.176,1.32-2.568,2.064-4.464,2.064-1.968,0-3.648-1.272-3.648-3.456ZM925.645,778.086v-2.376c-3.048.312-4.344,1.08-4.344,2.256,0,.816.576,1.224,1.416,1.224,1.344,0,2.28-.456,2.928-1.104Z" fill="#000" stroke-width="0"/>
      <path d="M933.252,778.302v-6.385h-2.137v-2.808h2.137v-4.393h3.84v4.393h3.289v2.808h-3.289v5.544c0,1.368.385,1.8,1.777,1.8.432,0,1.008-.048,1.271-.144v2.76c-.288.072-1.704.192-2.544.192-3.792,0-4.345-1.368-4.345-3.768Z" fill="#000" stroke-width="0"/>
      <path d="M942.588,764.261h3.889v3.096h-3.889v-3.096ZM942.611,769.109h3.84v12.793h-3.84v-12.793Z" fill="#000" stroke-width="0"/>
      <path d="M948.827,775.518c0-5.016,3.433-6.672,6.553-6.672,3.097,0,6.528,1.656,6.528,6.672,0,4.969-3.432,6.649-6.528,6.649s-6.553-1.68-6.553-6.649ZM958.044,775.542c0-2.136-.744-3.865-2.664-3.865-1.849,0-2.688,1.561-2.688,3.865,0,2.136.721,3.912,2.688,3.912,1.824,0,2.664-1.584,2.664-3.912Z" fill="#000" stroke-width="0"/>
      <path d="M964.163,769.109h3.864v2.016c.768-1.008,2.184-2.28,4.416-2.28,2.16,0,3.721,1.08,3.721,3.72v9.337h-3.84v-8.113c0-1.152-.433-1.752-1.513-1.752-1.032,0-1.921.528-2.784,1.272v8.593h-3.864v-12.793Z" fill="#000" stroke-width="0"/>
    </g>
  </g>
  <g id="placeNames">
    <g>
      <path d="M651.151,108.686c0-11.232,6.24-19.708,15.549-19.708,7.488,0,11.597,4.784,13.521,11.648l-1.924.52c-1.977-6.448-5.097-10.349-11.597-10.349-8.164,0-13.521,7.593-13.521,17.785,0,11.648,5.824,18.513,13.625,18.513,7.072,0,11.855-5.616,11.596-14.457h-10.088v-1.872h12.064v17.421h-1.977v-7.229c-1.611,4.16-5.46,7.957-11.648,7.957-8.944,0-15.601-7.749-15.601-20.229Z" fill="#000" stroke-width="0"/>
      <path d="M689.164,100.886h1.924v6.032c2.6-4.004,6.188-6.812,11.44-6.553l.884.052-.363,1.768-.885-.052c-4.784-.26-8.632,2.756-11.076,7.488v18.564h-1.924v-27.301Z" fill="#000" stroke-width="0"/>
      <path d="M705.387,114.562c0-8.684,5.305-14.249,11.857-14.249,6.5,0,11.855,5.564,11.855,14.249,0,8.528-5.355,14.197-11.855,14.197s-11.857-5.668-11.857-14.197ZM727.229,114.51c0-6.968-4.005-12.48-9.984-12.48-5.824,0-9.933,5.252-9.933,12.48,0,6.969,3.952,12.533,9.933,12.533,5.824,0,9.984-5.304,9.984-12.533Z" fill="#000" stroke-width="0"/>
      <path d="M733.051,100.886h2.08l9.256,25.064,9.152-25.064h2.028l-10.244,27.457h-1.976l-10.297-27.457Z" fill="#000" stroke-width="0"/>
      <path d="M759.519,114.562c0-9.621,5.772-14.249,11.44-14.249,6.137,0,10.66,5.044,10.66,13.885v.26h-20.177v.312c0,6.968,3.796,12.272,9.465,12.272,4.315,0,7.021-2.496,9.204-5.928l1.404.936c-2.236,3.692-5.513,6.708-10.66,6.708-6.656,0-11.337-6.032-11.337-14.197ZM779.644,112.846c-.364-6.552-3.589-10.816-8.685-10.816-4.473,0-8.893,3.536-9.465,10.816h18.149Z" fill="#000" stroke-width="0"/>
      <path d="M798.829,118.567l1.977-.521c1.612,5.721,5.096,9.049,11.856,9.049,6.448,0,10.608-3.172,10.608-8.112,0-4.836-2.185-7.072-10.921-9.881-8.736-2.808-11.856-4.992-11.856-10.972,0-4.94,4.473-9.152,11.284-9.152,7.021,0,10.921,3.848,12.533,8.944l-1.924.624c-1.769-5.148-5.148-7.749-10.609-7.749-5.824,0-9.256,3.38-9.256,7.28,0,4.889,2.809,6.656,10.973,9.309,8.372,2.704,11.805,5.148,11.805,11.544,0,6.24-5.461,9.984-12.689,9.984-7.852,0-12.064-4.16-13.78-10.348Z" fill="#000" stroke-width="0"/>
      <path d="M834.553,122.155v-19.501h-4.783v-1.768h4.783v-9.933h1.925v9.933h7.384v1.768h-7.384v19.397c0,3.016.987,4.732,4.576,4.732,1.04,0,1.976-.104,2.912-.364v1.82c-.884.156-2.08.312-3.12.312-4.524,0-6.293-2.028-6.293-6.396Z" fill="#000" stroke-width="0"/>
      <path d="M850.829,100.886h1.924v6.032c2.601-4.004,6.188-6.812,11.44-6.553l.884.052-.364,1.768-.884-.052c-4.784-.26-8.632,2.756-11.076,7.488v18.564h-1.924v-27.301Z" fill="#000" stroke-width="0"/>
      <path d="M867.053,114.562c0-9.621,5.771-14.249,11.439-14.249,6.137,0,10.661,5.044,10.661,13.885v.26h-20.177v.312c0,6.968,3.796,12.272,9.464,12.272,4.316,0,7.021-2.496,9.204-5.928l1.404.936c-2.236,3.692-5.512,6.708-10.66,6.708-6.656,0-11.336-6.032-11.336-14.197ZM887.177,112.846c-.364-6.552-3.588-10.816-8.685-10.816-4.472,0-8.892,3.536-9.464,10.816h18.148Z" fill="#000" stroke-width="0"/>
      <path d="M894.976,114.562c0-9.621,5.772-14.249,11.44-14.249,6.137,0,10.66,5.044,10.66,13.885v.26h-20.177v.312c0,6.968,3.796,12.272,9.465,12.272,4.315,0,7.021-2.496,9.204-5.928l1.404.936c-2.236,3.692-5.513,6.708-10.66,6.708-6.656,0-11.337-6.032-11.337-14.197ZM915.101,112.846c-.364-6.552-3.589-10.816-8.685-10.816-4.473,0-8.893,3.536-9.465,10.816h18.149Z" fill="#000" stroke-width="0"/>
      <path d="M925.915,122.155v-19.501h-4.784v-1.768h4.784v-9.933h1.924v9.933h7.385v1.768h-7.385v19.397c0,3.016.988,4.732,4.576,4.732,1.04,0,1.977-.104,2.912-.364v1.82c-.884.156-2.08.312-3.12.312-4.523,0-6.292-2.028-6.292-6.396Z" fill="#000" stroke-width="0"/>
      <path d="M952.278,108.686c0-11.284,6.292-19.708,15.496-19.708,7.645,0,11.597,4.94,13.469,11.596l-1.924.521c-1.769-6.084-4.837-10.297-11.545-10.297-8.008,0-13.468,7.385-13.468,17.837,0,11.076,5.46,18.461,13.624,18.461,6.916,0,10.4-4.784,12.064-10.713l1.872.416c-1.508,6.084-5.824,12.117-13.937,12.117-9.517,0-15.652-8.424-15.652-20.229Z" fill="#000" stroke-width="0"/>
      <path d="M987.793,114.562c0-9.621,5.772-14.249,11.441-14.249,6.136,0,10.66,5.044,10.66,13.885v.26h-20.177v.312c0,6.968,3.796,12.272,9.464,12.272,4.316,0,7.021-2.496,9.205-5.928l1.403.936c-2.235,3.692-5.512,6.708-10.66,6.708-6.656,0-11.337-6.032-11.337-14.197ZM1007.918,112.846c-.363-6.552-3.588-10.816-8.684-10.816-4.473,0-8.893,3.536-9.465,10.816h18.148Z" fill="#000" stroke-width="0"/>
      <path d="M1017.225,100.886h1.924v4.628c2.549-2.34,6.24-5.2,10.505-5.2,4.472,0,6.812,2.132,7.593,5.356,3.119-2.756,6.76-5.356,10.816-5.356,5.512,0,7.904,3.12,7.904,8.32v19.553h-1.873v-19.396c0-4.524-1.871-6.761-6.188-6.761-3.744,0-7.125,2.236-10.4,5.408.052.26.052,1.092.052,1.404v19.345h-1.924v-19.396c0-4.524-1.82-6.761-6.137-6.761-3.796,0-7.124,2.236-10.349,5.356v20.801h-1.924v-27.301Z" fill="#000" stroke-width="0"/>
      <path d="M1062.984,114.562c0-9.621,5.772-14.249,11.441-14.249,6.136,0,10.66,5.044,10.66,13.885v.26h-20.177v.312c0,6.968,3.796,12.272,9.464,12.272,4.316,0,7.021-2.496,9.205-5.928l1.403.936c-2.235,3.692-5.512,6.708-10.66,6.708-6.656,0-11.337-6.032-11.337-14.197ZM1083.109,112.846c-.363-6.552-3.588-10.816-8.684-10.816-4.473,0-8.893,3.536-9.465,10.816h18.148Z" fill="#000" stroke-width="0"/>
      <path d="M1093.925,122.155v-19.501h-4.784v-1.768h4.784v-9.933h1.924v9.933h7.385v1.768h-7.385v19.397c0,3.016.988,4.732,4.576,4.732,1.04,0,1.977-.104,2.912-.364v1.82c-.884.156-2.08.312-3.12.312-4.523,0-6.292-2.028-6.292-6.396Z" fill="#000" stroke-width="0"/>
      <path d="M1107.496,114.562c0-9.621,5.772-14.249,11.441-14.249,6.136,0,10.66,5.044,10.66,13.885v.26h-20.177v.312c0,6.968,3.796,12.272,9.464,12.272,4.316,0,7.021-2.496,9.205-5.928l1.403.936c-2.235,3.692-5.512,6.708-10.66,6.708-6.656,0-11.337-6.032-11.337-14.197ZM1127.621,112.846c-.363-6.552-3.588-10.816-8.684-10.816-4.473,0-8.893,3.536-9.465,10.816h18.148Z" fill="#000" stroke-width="0"/>
      <path d="M1136.928,100.886h1.924v6.032c2.601-4.004,6.188-6.812,11.441-6.553l.884.052-.364,1.768-.884-.052c-4.784-.26-8.633,2.756-11.077,7.488v18.564h-1.924v-27.301Z" fill="#000" stroke-width="0"/>
      <path d="M1152.943,138.12l.468-1.664c1.144.312,2.34.468,3.744.468,3.433,0,5.2-1.508,6.448-4.784l1.404-3.744-10.557-27.509h2.08l9.465,25.117,9.412-25.117h2.027l-11.96,31.253c-1.716,4.42-3.744,6.5-8.477,6.5-1.456,0-2.704-.156-4.056-.52Z" fill="#000" stroke-width="0"/>
    </g>
    <g>
      <path d="M283.367,541.787l-12.949-21.165h2.236l11.805,19.396,11.752-19.396h2.133l-12.949,21.165v17.316h-2.027v-17.316Z" fill="#000" stroke-width="0"/>
      <path d="M298.082,553.02c0-5.772,5.461-9.465,18.981-11.597v-1.924c0-4.212-2.08-6.553-6.24-6.553-4.784,0-7.904,2.133-10.505,4.524l-1.352-1.144c2.808-2.757,6.552-5.097,11.908-5.097,5.564,0,8.112,3.172,8.112,8.112v13.364c0,3.433.208,4.94.728,6.396h-2.027c-.416-1.196-.572-2.392-.624-4.42-2.86,2.652-6.812,5.044-11.337,5.044-4.888,0-7.645-2.496-7.645-6.708ZM317.063,552.707v-9.776c-13.469,2.185-17.057,5.772-17.057,9.984,0,3.328,2.184,5.097,5.824,5.097,4.472,0,8.632-2.601,11.232-5.305Z" fill="#000" stroke-width="0"/>
      <path d="M327.773,520.622h1.925v38.481h-1.925v-38.481Z" fill="#000" stroke-width="0"/>
      <path d="M337.289,545.479c0-9.621,5.772-14.249,11.441-14.249,6.136,0,10.66,5.044,10.66,13.885v.26h-20.177v.312c0,6.968,3.796,12.272,9.464,12.272,4.316,0,7.021-2.496,9.205-5.929l1.403.937c-2.235,3.691-5.512,6.708-10.66,6.708-6.656,0-11.337-6.032-11.337-14.196ZM357.414,543.763c-.363-6.552-3.588-10.816-8.684-10.816-4.473,0-8.893,3.536-9.465,10.816h18.148Z" fill="#000" stroke-width="0"/>
      <path d="M378.681,520.622h2.028v36.609h19.604v1.872h-21.633v-38.481Z" fill="#000" stroke-width="0"/>
      <path d="M405.355,553.02c0-5.772,5.461-9.465,18.981-11.597v-1.924c0-4.212-2.08-6.553-6.24-6.553-4.784,0-7.904,2.133-10.505,4.524l-1.352-1.144c2.808-2.757,6.552-5.097,11.908-5.097,5.564,0,8.112,3.172,8.112,8.112v13.364c0,3.433.208,4.94.728,6.396h-2.027c-.416-1.196-.572-2.392-.624-4.42-2.86,2.652-6.812,5.044-11.337,5.044-4.888,0-7.645-2.496-7.645-6.708ZM424.337,552.707v-9.776c-13.469,2.185-17.057,5.772-17.057,9.984,0,3.328,2.184,5.097,5.824,5.097,4.472,0,8.632-2.601,11.232-5.305Z" fill="#000" stroke-width="0"/>
      <path d="M431.252,531.803h1.976l7.54,24.597,7.021-24.597h1.977l7.384,24.597,7.177-24.597h1.924l-8.269,27.405h-1.82l-7.384-24.753-7.072,24.753h-1.82l-8.632-27.405Z" fill="#000" stroke-width="0"/>
      <path d="M482.367,549.483l1.976-.521c1.612,5.721,5.097,9.049,11.856,9.049,6.448,0,10.608-3.172,10.608-8.112,0-4.836-2.184-7.072-10.92-9.881-8.736-2.808-11.856-4.992-11.856-10.972,0-4.94,4.472-9.152,11.284-9.152,7.021,0,10.921,3.848,12.532,8.944l-1.924.624c-1.768-5.148-5.148-7.749-10.608-7.749-5.824,0-9.257,3.381-9.257,7.28,0,4.889,2.809,6.656,10.973,9.309,8.373,2.704,11.805,5.148,11.805,11.545,0,6.24-5.46,9.984-12.688,9.984-7.853,0-12.064-4.16-13.78-10.349Z" fill="#000" stroke-width="0"/>
      <path d="M514.919,545.479c0-9.673,5.72-14.249,11.7-14.249,5.305,0,8.061,3.12,9.881,7.332l-1.664.885c-1.664-4.005-3.9-6.501-8.32-6.501-4.629,0-9.673,3.589-9.673,12.48,0,7.385,4.005,12.533,9.517,12.533,4.368,0,6.604-2.341,8.736-6.656l1.561.779c-2.341,4.837-5.253,7.593-10.4,7.593-6.449,0-11.337-5.929-11.337-14.196Z" fill="#000" stroke-width="0"/>
      <path d="M543.777,520.622h1.924v15.809c2.549-2.34,6.345-5.2,10.869-5.2,5.771,0,8.268,3.12,8.268,8.32v19.553h-1.871v-19.396c0-4.524-2.028-6.761-6.553-6.761-4.004,0-7.488,2.236-10.713,5.356v20.801h-1.924v-38.481Z" fill="#000" stroke-width="0"/>
      <path d="M571.857,545.479c0-8.685,5.305-14.249,11.856-14.249,6.5,0,11.856,5.564,11.856,14.249,0,8.528-5.356,14.196-11.856,14.196s-11.856-5.668-11.856-14.196ZM593.698,545.427c0-6.968-4.004-12.48-9.984-12.48-5.824,0-9.933,5.253-9.933,12.48,0,6.969,3.952,12.533,9.933,12.533,5.824,0,9.984-5.305,9.984-12.533Z" fill="#000" stroke-width="0"/>
      <path d="M601.444,545.479c0-8.685,5.304-14.249,11.856-14.249,6.5,0,11.856,5.564,11.856,14.249,0,8.528-5.356,14.196-11.856,14.196s-11.856-5.668-11.856-14.196ZM623.285,545.427c0-6.968-4.004-12.48-9.984-12.48-5.824,0-9.933,5.253-9.933,12.48,0,6.969,3.952,12.533,9.933,12.533,5.824,0,9.984-5.305,9.984-12.533Z" fill="#000" stroke-width="0"/>
      <path d="M632.801,520.622h1.924v38.481h-1.924v-38.481Z" fill="#000" stroke-width="0"/>
    </g>
    <g>
      <path d="M127.166,903.28l1.977-.521c1.611,5.721,5.096,9.049,11.856,9.049,6.448,0,10.608-3.172,10.608-8.112,0-4.836-2.185-7.072-10.921-9.881-8.736-2.808-11.856-4.992-11.856-10.972,0-4.94,4.473-9.152,11.285-9.152,7.02,0,10.92,3.848,12.532,8.944l-1.925.624c-1.768-5.148-5.147-7.749-10.607-7.749-5.824,0-9.257,3.38-9.257,7.28,0,4.889,2.808,6.656,10.973,9.309,8.372,2.704,11.804,5.148,11.804,11.544,0,6.24-5.46,9.984-12.688,9.984-7.853,0-12.064-4.16-13.781-10.348Z" fill="#000" stroke-width="0"/>
      <path d="M162.891,906.868v-19.501h-4.785v-1.768h4.785v-9.933h1.924v9.933h7.384v1.768h-7.384v19.397c0,3.016.988,4.732,4.576,4.732,1.04,0,1.976-.104,2.912-.364v1.82c-.885.156-2.08.312-3.12.312-4.524,0-6.292-2.028-6.292-6.396Z" fill="#000" stroke-width="0"/>
      <path d="M176.462,899.275c0-9.621,5.772-14.249,11.44-14.249,6.137,0,10.66,5.044,10.66,13.885v.26h-20.177v.312c0,6.968,3.796,12.272,9.465,12.272,4.315,0,7.021-2.496,9.204-5.928l1.404.936c-2.236,3.692-5.513,6.708-10.66,6.708-6.656,0-11.337-6.032-11.337-14.197ZM196.587,897.559c-.364-6.552-3.589-10.816-8.685-10.816-4.473,0-8.893,3.536-9.465,10.816h18.149Z" fill="#000" stroke-width="0"/>
      <path d="M205.894,885.599h1.924v6.032c2.601-4.004,6.188-6.812,11.44-6.553l.884.052-.364,1.768-.884-.052c-4.784-.26-8.632,2.756-11.076,7.488v18.564h-1.924v-27.301Z" fill="#000" stroke-width="0"/>
      <path d="M226.328,874.418h1.925v38.481h-1.925v-38.481Z" fill="#000" stroke-width="0"/>
      <path d="M237.456,875.823h2.236v2.756h-2.236v-2.756ZM237.612,885.599h1.924v27.301h-1.924v-27.301Z" fill="#000" stroke-width="0"/>
      <path d="M248.636,885.599h1.925v4.628c2.548-2.34,6.344-5.2,10.868-5.2,5.772,0,8.269,3.12,8.269,8.32v19.553h-1.873v-19.396c0-4.524-2.027-6.761-6.552-6.761-4.004,0-7.488,2.236-10.712,5.356v20.801h-1.925v-27.301Z" fill="#000" stroke-width="0"/>
      <path d="M275.155,916.592c0-3.172,2.652-5.46,5.513-6.604-1.82-.624-2.705-1.664-2.705-3.484,0-1.508,1.301-2.912,3.225-3.9-2.548-1.664-4.108-4.472-4.108-7.852,0-5.564,4.421-9.725,10.297-9.725,2.756,0,5.2.884,7.021,2.496,1.768-1.144,4.264-2.288,6.447-2.6v2.028c-1.924.156-4.004.78-5.408,1.612,1.457,1.612,2.236,3.744,2.236,6.188,0,5.72-4.42,9.62-10.296,9.62-1.716,0-3.38-.364-4.732-.988-1.769.78-2.808,1.82-2.808,3.017,0,1.508,1.144,2.132,4.939,2.496.364.052,4.368.416,4.889.416,6.292.468,10.244,2.288,10.244,6.656,0,4.316-4.68,7.332-12.221,7.332-8.061,0-12.532-2.34-12.532-6.708ZM297.984,916.072c0-3.484-3.536-4.68-8.944-5.096-.521,0-4.16-.312-4.576-.364-.624-.052-1.196-.104-1.716-.208-3.225,1.092-5.669,3.328-5.669,6.084,0,3.433,3.796,5.148,10.661,5.148,6.552,0,10.244-2.392,10.244-5.564ZM295.8,894.751c0-4.628-3.224-8.061-8.424-8.061-5.148,0-8.425,3.484-8.425,8.061s3.328,7.904,8.425,7.904,8.424-3.328,8.424-7.904Z" fill="#000" stroke-width="0"/>
      <path d="M108.706,936.818h2.393l14.716,35.881,14.77-35.881h2.392v38.481h-2.08v-34.321l-14.145,34.321h-1.924l-14.196-34.321v34.321h-1.925v-38.481Z" fill="#000" stroke-width="0"/>
      <path d="M150.879,961.675c0-9.62,5.771-14.249,11.439-14.249,6.137,0,10.661,5.044,10.661,13.884v.26h-20.177v.312c0,6.968,3.796,12.272,9.464,12.272,4.316,0,7.021-2.496,9.204-5.928l1.404.936c-2.236,3.692-5.512,6.708-10.66,6.708-6.656,0-11.336-6.032-11.336-14.196ZM171.003,959.959c-.364-6.553-3.588-10.816-8.685-10.816-4.472,0-8.892,3.536-9.464,10.816h18.148Z" fill="#000" stroke-width="0"/>
      <path d="M180.31,947.999h1.925v4.628c2.548-2.34,6.24-5.2,10.504-5.2,4.473,0,6.812,2.132,7.592,5.356,3.121-2.756,6.761-5.356,10.816-5.356,5.513,0,7.904,3.12,7.904,8.32v19.553h-1.871v-19.397c0-4.524-1.873-6.76-6.188-6.76-3.744,0-7.124,2.236-10.4,5.408.052.26.052,1.092.052,1.404v19.345h-1.924v-19.397c0-4.524-1.82-6.76-6.137-6.76-3.796,0-7.124,2.236-10.348,5.356v20.801h-1.925v-27.301Z" fill="#000" stroke-width="0"/>
      <path d="M226.07,961.675c0-8.685,5.304-14.249,11.855-14.249,6.501,0,11.857,5.564,11.857,14.249,0,8.528-5.356,14.196-11.857,14.196s-11.855-5.668-11.855-14.196ZM247.91,961.624c0-6.969-4.004-12.48-9.984-12.48-5.824,0-9.932,5.252-9.932,12.48,0,6.968,3.952,12.532,9.932,12.532,5.824,0,9.984-5.304,9.984-12.532Z" fill="#000" stroke-width="0"/>
      <path d="M257.165,947.999h1.925v6.032c2.6-4.004,6.188-6.812,11.439-6.552l.885.052-.364,1.768-.884-.052c-4.784-.26-8.633,2.756-11.076,7.488v18.565h-1.925v-27.301Z" fill="#000" stroke-width="0"/>
      <path d="M277.444,938.222h2.236v2.756h-2.236v-2.756ZM277.601,947.999h1.924v27.301h-1.924v-27.301Z" fill="#000" stroke-width="0"/>
      <path d="M287.012,969.215c0-5.772,5.461-9.464,18.981-11.596v-1.924c0-4.212-2.08-6.552-6.24-6.552-4.784,0-7.904,2.132-10.505,4.524l-1.352-1.144c2.808-2.756,6.552-5.096,11.908-5.096,5.564,0,8.112,3.172,8.112,8.112v13.365c0,3.432.208,4.94.728,6.396h-2.027c-.416-1.196-.572-2.392-.624-4.42-2.86,2.652-6.812,5.044-11.337,5.044-4.888,0-7.645-2.496-7.645-6.708ZM305.993,968.904v-9.776c-13.469,2.184-17.057,5.772-17.057,9.984,0,3.328,2.184,5.096,5.824,5.096,4.472,0,8.632-2.6,11.232-5.304Z" fill="#000" stroke-width="0"/>
      <path d="M316.703,936.818h1.925v38.481h-1.925v-38.481Z" fill="#000" stroke-width="0"/>
      <path d="M137.047,999.218h2.027v36.609h19.605v1.872h-21.633v-38.481Z" fill="#000" stroke-width="0"/>
      <path d="M165.438,1000.623h2.235v2.756h-2.235v-2.756ZM165.594,1010.399h1.925v27.301h-1.925v-27.301Z" fill="#000" stroke-width="0"/>
      <path d="M178.542,1033.488v4.212h-1.924v-38.481h1.924v15.393c2.08-2.236,5.252-4.784,9.517-4.784,6.448,0,11.389,4.628,11.389,14.196s-4.94,14.249-11.441,14.249c-4.056,0-7.02-2.185-9.464-4.784ZM197.522,1024.075c0-8.632-4.315-12.533-9.517-12.533-4.056,0-7.02,2.444-9.464,5.097v14.769c3.172,3.328,5.876,5.148,9.568,5.148,5.2,0,9.412-3.848,9.412-12.48Z" fill="#000" stroke-width="0"/>
      <path d="M206.881,1010.399h1.924v6.032c2.601-4.004,6.188-6.812,11.441-6.553l.884.052-.364,1.768-.884-.052c-4.784-.26-8.633,2.756-11.077,7.488v18.564h-1.924v-27.301Z" fill="#000" stroke-width="0"/>
      <path d="M223.209,1031.616c0-5.772,5.46-9.465,18.98-11.597v-1.924c0-4.212-2.08-6.553-6.24-6.553-4.784,0-7.904,2.132-10.505,4.524l-1.352-1.144c2.808-2.756,6.552-5.096,11.908-5.096,5.564,0,8.112,3.172,8.112,8.112v13.364c0,3.433.208,4.94.729,6.396h-2.028c-.416-1.196-.572-2.392-.624-4.42-2.86,2.652-6.812,5.044-11.337,5.044-4.888,0-7.644-2.496-7.644-6.708ZM242.189,1031.303v-9.776c-13.469,2.185-17.057,5.772-17.057,9.984,0,3.328,2.184,5.097,5.824,5.097,4.472,0,8.632-2.601,11.232-5.305Z" fill="#000" stroke-width="0"/>
      <path d="M252.64,1010.399h1.925v6.032c2.6-4.004,6.188-6.812,11.439-6.553l.885.052-.364,1.768-.884-.052c-4.784-.26-8.633,2.756-11.076,7.488v18.564h-1.925v-27.301Z" fill="#000" stroke-width="0"/>
      <path d="M268.655,1047.632l.468-1.664c1.145.312,2.34.468,3.744.468,3.432,0,5.2-1.508,6.448-4.784l1.404-3.744-10.557-27.509h2.08l9.464,25.117,9.413-25.117h2.028l-11.961,31.253c-1.716,4.42-3.744,6.5-8.477,6.5-1.456,0-2.704-.156-4.056-.52Z" fill="#000" stroke-width="0"/>
    </g>
    <g>
      <path d="M1538.213,1233.993l1.976-.521c1.612,5.721,5.097,9.049,11.856,9.049,6.448,0,10.608-3.173,10.608-8.112,0-4.837-2.184-7.072-10.92-9.881-8.736-2.808-11.856-4.992-11.856-10.973,0-4.939,4.472-9.152,11.284-9.152,7.021,0,10.921,3.849,12.532,8.944l-1.924.624c-1.768-5.147-5.148-7.748-10.608-7.748-5.824,0-9.257,3.38-9.257,7.28,0,4.889,2.809,6.656,10.973,9.309,8.373,2.704,11.805,5.148,11.805,11.544,0,6.24-5.46,9.984-12.688,9.984-7.853,0-12.064-4.16-13.78-10.348Z" fill="#000" stroke-width="0"/>
      <path d="M1572.636,1206.536h2.236v2.756h-2.236v-2.756ZM1572.792,1216.312h1.924v27.301h-1.924v-27.301Z" fill="#000" stroke-width="0"/>
      <path d="M1584.076,1205.132h1.924v38.481h-1.924v-38.481Z" fill="#000" stroke-width="0"/>
      <path d="M1595.359,1205.132h1.924v38.481h-1.924v-38.481Z" fill="#000" stroke-width="0"/>
      <path d="M1606.487,1206.536h2.235v2.756h-2.235v-2.756ZM1606.643,1216.312h1.925v27.301h-1.925v-27.301Z" fill="#000" stroke-width="0"/>
      <path d="M1617.667,1216.312h1.924v4.628c2.548-2.34,6.24-5.2,10.505-5.2,4.472,0,6.812,2.132,7.592,5.356,3.12-2.757,6.76-5.356,10.816-5.356,5.512,0,7.904,3.12,7.904,8.32v19.553h-1.872v-19.396c0-4.524-1.872-6.761-6.188-6.761-3.744,0-7.124,2.236-10.4,5.408.053.26.053,1.092.053,1.404v19.345h-1.925v-19.396c0-4.524-1.819-6.761-6.136-6.761-3.797,0-7.125,2.236-10.349,5.356v20.801h-1.924v-27.301Z" fill="#000" stroke-width="0"/>
      <path d="M1663.322,1237.529c0-5.772,5.461-9.465,18.981-11.597v-1.924c0-4.213-2.08-6.553-6.24-6.553-4.784,0-7.904,2.132-10.505,4.524l-1.352-1.145c2.808-2.756,6.552-5.096,11.908-5.096,5.564,0,8.112,3.172,8.112,8.112v13.364c0,3.433.208,4.94.728,6.396h-2.027c-.416-1.196-.572-2.393-.624-4.42-2.86,2.651-6.812,5.044-11.337,5.044-4.888,0-7.645-2.496-7.645-6.708ZM1682.304,1237.217v-9.776c-13.469,2.185-17.057,5.772-17.057,9.984,0,3.328,2.184,5.097,5.824,5.097,4.472,0,8.632-2.601,11.232-5.305Z" fill="#000" stroke-width="0"/>
      <path d="M1692.754,1216.312h1.924v4.628c2.549-2.34,6.345-5.2,10.869-5.2,5.771,0,8.268,3.12,8.268,8.32v19.553h-1.871v-19.396c0-4.524-2.028-6.761-6.553-6.761-4.004,0-7.488,2.236-10.713,5.356v20.801h-1.924v-27.301Z" fill="#000" stroke-width="0"/>
      <path d="M1732.429,1224.112c0-11.284,6.292-19.709,15.497-19.709,7.645,0,11.596,4.94,13.469,11.597l-1.925.521c-1.768-6.085-4.836-10.297-11.544-10.297-8.009,0-13.469,7.385-13.469,17.837,0,11.076,5.46,18.461,13.625,18.461,6.916,0,10.4-4.784,12.064-10.713l1.871.416c-1.508,6.084-5.824,12.116-13.936,12.116-9.517,0-15.653-8.424-15.653-20.229Z" fill="#000" stroke-width="0"/>
      <path d="M1767.944,1229.988c0-8.684,5.304-14.248,11.856-14.248,6.5,0,11.856,5.564,11.856,14.248,0,8.528-5.356,14.197-11.856,14.197s-11.856-5.669-11.856-14.197ZM1789.785,1229.937c0-6.968-4.004-12.48-9.984-12.48-5.824,0-9.933,5.252-9.933,12.48,0,6.969,3.952,12.532,9.933,12.532,5.824,0,9.984-5.304,9.984-12.532Z" fill="#000" stroke-width="0"/>
      <path d="M1799.3,1205.132h1.924v38.481h-1.924v-38.481Z" fill="#000" stroke-width="0"/>
      <path d="M1810.584,1205.132h1.924v38.481h-1.924v-38.481Z" fill="#000" stroke-width="0"/>
      <path d="M1820.1,1229.988c0-9.62,5.771-14.248,11.439-14.248,6.137,0,10.661,5.044,10.661,13.885v.26h-20.177v.312c0,6.969,3.796,12.272,9.464,12.272,4.316,0,7.021-2.496,9.204-5.928l1.404.936c-2.236,3.692-5.512,6.709-10.66,6.709-6.656,0-11.336-6.032-11.336-14.197ZM1840.224,1228.272c-.364-6.552-3.588-10.816-8.685-10.816-4.472,0-8.892,3.536-9.464,10.816h18.148Z" fill="#000" stroke-width="0"/>
      <path d="M1846.463,1247.306c0-3.173,2.651-5.461,5.512-6.604-1.82-.624-2.704-1.664-2.704-3.484,0-1.508,1.3-2.912,3.224-3.9-2.548-1.664-4.107-4.472-4.107-7.852,0-5.564,4.42-9.725,10.296-9.725,2.757,0,5.2.884,7.021,2.496,1.768-1.145,4.264-2.288,6.448-2.601v2.028c-1.924.156-4.004.78-5.408,1.612,1.456,1.612,2.236,3.744,2.236,6.188,0,5.72-4.421,9.62-10.297,9.62-1.716,0-3.38-.364-4.731-.988-1.769.78-2.809,1.82-2.809,3.017,0,1.508,1.145,2.132,4.94,2.496.364.052,4.368.416,4.888.416,6.293.468,10.244,2.288,10.244,6.656,0,4.315-4.68,7.332-12.22,7.332-8.061,0-12.532-2.34-12.532-6.708ZM1869.291,1246.785c0-3.484-3.536-4.68-8.944-5.096-.52,0-4.16-.312-4.576-.364-.624-.052-1.196-.104-1.716-.208-3.225,1.092-5.668,3.328-5.668,6.084,0,3.433,3.796,5.148,10.66,5.148,6.553,0,10.244-2.393,10.244-5.564ZM1867.107,1225.465c0-4.629-3.225-8.061-8.425-8.061-5.147,0-8.424,3.484-8.424,8.061s3.328,7.904,8.424,7.904,8.425-3.328,8.425-7.904Z" fill="#000" stroke-width="0"/>
      <path d="M1875.426,1229.988c0-9.62,5.772-14.248,11.44-14.248,6.136,0,10.66,5.044,10.66,13.885v.26h-20.177v.312c0,6.969,3.797,12.272,9.465,12.272,4.316,0,7.02-2.496,9.204-5.928l1.404.936c-2.236,3.692-5.513,6.709-10.661,6.709-6.656,0-11.336-6.032-11.336-14.197ZM1895.551,1228.272c-.364-6.552-3.588-10.816-8.685-10.816-4.472,0-8.893,3.536-9.464,10.816h18.148Z" fill="#000" stroke-width="0"/>
    </g>
    <g>
      <path d="M579.617,736.787h11.805c9.049,0,13.312,3.328,13.312,9.725,0,5.512-4.057,8.164-7.853,8.944,4.315.676,9.413,3.275,9.413,9.62,0,5.928-4.057,10.192-12.949,10.192h-13.729v-38.481ZM591.941,754.571c6.5,0,10.765-2.548,10.765-7.956,0-5.772-3.692-7.956-11.232-7.956h-9.88v15.912h10.348ZM593.502,773.448c7.279,0,10.764-3.172,10.764-8.372,0-5.824-4.576-8.633-12.115-8.633h-10.557v17.005h11.908Z" fill="#000" stroke-width="0"/>
      <path d="M611.961,761.644c0-9.62,5.773-14.248,11.441-14.248,6.136,0,10.66,5.044,10.66,13.885v.26h-20.178v.312c0,6.969,3.797,12.272,9.465,12.272,4.316,0,7.021-2.496,9.205-5.928l1.404.936c-2.236,3.692-5.514,6.709-10.661,6.709-6.656,0-11.337-6.032-11.337-14.197ZM632.086,759.928c-.363-6.552-3.588-10.816-8.684-10.816-4.473,0-8.893,3.536-9.465,10.816h18.148Z" fill="#000" stroke-width="0"/>
      <path d="M641.496,738.191h2.236v2.756h-2.236v-2.756ZM641.652,747.968h1.924v27.301h-1.924v-27.301Z" fill="#000" stroke-width="0"/>
      <path d="M652.676,747.968h1.925v4.628c2.548-2.34,6.345-5.2,10.868-5.2,5.772,0,8.269,3.12,8.269,8.32v19.553h-1.872v-19.396c0-4.524-2.027-6.761-6.553-6.761-4.004,0-7.488,2.236-10.712,5.356v20.801h-1.925v-27.301Z" fill="#000" stroke-width="0"/>
      <path d="M680.756,761.644c0-9.62,5.771-14.248,11.44-14.248,6.136,0,10.661,5.044,10.661,13.885v.26h-20.178v.312c0,6.969,3.797,12.272,9.465,12.272,4.316,0,7.02-2.496,9.204-5.928l1.403.936c-2.235,3.692-5.512,6.709-10.66,6.709-6.656,0-11.336-6.032-11.336-14.197ZM700.881,759.928c-.364-6.552-3.588-10.816-8.685-10.816-4.472,0-8.892,3.536-9.464,10.816h18.148Z" fill="#000" stroke-width="0"/>
      <path d="M708.68,761.644c0-9.672,5.72-14.248,11.699-14.248,5.305,0,8.061,3.12,9.881,7.332l-1.664.884c-1.664-4.004-3.9-6.5-8.32-6.5-4.628,0-9.672,3.588-9.672,12.48,0,7.385,4.004,12.532,9.516,12.532,4.369,0,6.605-2.34,8.736-6.656l1.561.78c-2.34,4.836-5.252,7.593-10.4,7.593-6.448,0-11.336-5.929-11.336-14.197Z" fill="#000" stroke-width="0"/>
      <path d="M737.539,736.787h1.924v27.509l14.977-16.328h2.34l-8.996,9.62,10.244,17.681h-2.133l-9.412-16.225s-6.084,6.552-7.02,7.54v8.685h-1.924v-38.481Z" fill="#000" stroke-width="0"/>
      <path d="M761.51,761.644c0-9.62,5.773-14.248,11.441-14.248,6.136,0,10.66,5.044,10.66,13.885v.26h-20.178v.312c0,6.969,3.797,12.272,9.465,12.272,4.316,0,7.021-2.496,9.205-5.928l1.404.936c-2.236,3.692-5.514,6.709-10.661,6.709-6.656,0-11.337-6.032-11.337-14.197ZM781.635,759.928c-.363-6.552-3.588-10.816-8.684-10.816-4.473,0-8.893,3.536-9.465,10.816h18.148Z" fill="#000" stroke-width="0"/>
      <path d="M604.084,799.187h2.027v36.609h19.605v1.872h-21.633v-38.481Z" fill="#000" stroke-width="0"/>
      <path d="M632.475,800.591h2.236v2.756h-2.236v-2.756ZM632.631,810.367h1.924v27.301h-1.924v-27.301Z" fill="#000" stroke-width="0"/>
      <path d="M645.578,833.456v4.212h-1.924v-38.481h1.924v15.393c2.08-2.235,5.252-4.784,9.518-4.784,6.447,0,11.388,4.629,11.388,14.197s-4.94,14.248-11.44,14.248c-4.057,0-7.02-2.184-9.465-4.784ZM664.559,824.044c0-8.633-4.315-12.532-9.516-12.532-4.057,0-7.02,2.443-9.465,5.096v14.769c3.172,3.328,5.877,5.148,9.568,5.148,5.201,0,9.412-3.849,9.412-12.48Z" fill="#000" stroke-width="0"/>
      <path d="M673.918,810.367h1.924v6.032c2.6-4.004,6.188-6.812,11.44-6.552l.884.052-.363,1.768-.885-.052c-4.783-.26-8.633,2.756-11.076,7.488v18.564h-1.924v-27.301Z" fill="#000" stroke-width="0"/>
      <path d="M690.245,831.584c0-5.772,5.46-9.464,18.981-11.597v-1.924c0-4.212-2.08-6.552-6.24-6.552-4.785,0-7.904,2.132-10.506,4.523l-1.352-1.144c2.809-2.756,6.553-5.097,11.908-5.097,5.564,0,8.113,3.173,8.113,8.112v13.365c0,3.432.207,4.939.728,6.396h-2.028c-.416-1.195-.572-2.392-.623-4.42-2.861,2.652-6.812,5.044-11.338,5.044-4.887,0-7.644-2.496-7.644-6.708ZM709.227,831.272v-9.776c-13.469,2.184-17.057,5.771-17.057,9.984,0,3.328,2.184,5.096,5.824,5.096,4.471,0,8.631-2.6,11.232-5.304Z" fill="#000" stroke-width="0"/>
      <path d="M719.676,810.367h1.925v6.032c2.601-4.004,6.188-6.812,11.44-6.552l.885.052-.365,1.768-.883-.052c-4.785-.26-8.633,2.756-11.077,7.488v18.564h-1.925v-27.301Z" fill="#000" stroke-width="0"/>
      <path d="M735.691,847.601l.469-1.664c1.144.312,2.34.468,3.744.468,3.432,0,5.199-1.508,6.447-4.784l1.404-3.744-10.557-27.509h2.08l9.465,25.117,9.412-25.117h2.028l-11.96,31.253c-1.717,4.421-3.744,6.501-8.477,6.501-1.457,0-2.705-.156-4.057-.521Z" fill="#000" stroke-width="0"/>
    </g>
    <g>
      <path d="M991.735,687.221l1.977-.521c1.612,5.721,5.096,9.049,11.856,9.049,6.448,0,10.608-3.173,10.608-8.112,0-4.837-2.185-7.072-10.921-9.881-8.736-2.808-11.856-4.992-11.856-10.973,0-4.939,4.473-9.152,11.284-9.152,7.021,0,10.921,3.849,12.533,8.944l-1.924.624c-1.769-5.147-5.148-7.748-10.609-7.748-5.824,0-9.256,3.38-9.256,7.28,0,4.889,2.809,6.656,10.973,9.309,8.372,2.704,11.805,5.148,11.805,11.544,0,6.24-5.461,9.984-12.689,9.984-7.852,0-12.064-4.16-13.78-10.348Z" fill="#000" stroke-width="0"/>
      <path d="M1024.287,683.216c0-9.672,5.721-14.248,11.701-14.248,5.304,0,8.061,3.12,9.88,7.332l-1.664.884c-1.664-4.004-3.899-6.5-8.32-6.5-4.628,0-9.672,3.588-9.672,12.48,0,7.385,4.004,12.532,9.517,12.532,4.367,0,6.604-2.34,8.736-6.656l1.56.78c-2.34,4.836-5.252,7.593-10.4,7.593-6.448,0-11.337-5.929-11.337-14.197Z" fill="#000" stroke-width="0"/>
      <path d="M1053.146,658.359h1.924v15.809c2.549-2.34,6.345-5.2,10.869-5.2,5.771,0,8.268,3.12,8.268,8.32v19.553h-1.871v-19.396c0-4.524-2.028-6.761-6.553-6.761-4.004,0-7.488,2.236-10.713,5.356v20.801h-1.924v-38.481Z" fill="#000" stroke-width="0"/>
      <path d="M1079.459,669.54h1.976l7.54,24.597,7.021-24.597h1.977l7.384,24.597,7.177-24.597h1.924l-8.269,27.404h-1.82l-7.384-24.753-7.072,24.753h-1.82l-8.632-27.404Z" fill="#000" stroke-width="0"/>
      <path d="M1117.783,690.757c0-5.772,5.46-9.465,18.98-11.597v-1.924c0-4.213-2.08-6.553-6.24-6.553-4.784,0-7.904,2.132-10.505,4.524l-1.352-1.145c2.808-2.756,6.552-5.096,11.908-5.096,5.564,0,8.112,3.172,8.112,8.112v13.364c0,3.433.208,4.94.729,6.396h-2.028c-.416-1.196-.572-2.393-.624-4.42-2.86,2.651-6.812,5.044-11.337,5.044-4.888,0-7.644-2.496-7.644-6.708ZM1136.764,690.444v-9.776c-13.469,2.185-17.057,5.772-17.057,9.984,0,3.328,2.184,5.097,5.824,5.097,4.472,0,8.632-2.601,11.232-5.305Z" fill="#000" stroke-width="0"/>
      <path d="M1147.214,669.54h1.925v6.032c2.6-4.005,6.188-6.812,11.439-6.553l.885.052-.364,1.769-.884-.052c-4.784-.261-8.633,2.756-11.076,7.488v18.564h-1.925v-27.301Z" fill="#000" stroke-width="0"/>
      <path d="M1165.882,669.54h18.877v1.403l-17.681,24.182h18.305v1.716h-20.697v-1.404l17.577-24.181h-16.381v-1.716Z" fill="#000" stroke-width="0"/>
      <path d="M1192.454,669.54h1.924v4.628c2.548-2.34,6.24-5.2,10.505-5.2,4.472,0,6.812,2.132,7.592,5.356,3.12-2.757,6.76-5.356,10.816-5.356,5.512,0,7.904,3.12,7.904,8.32v19.553h-1.872v-19.396c0-4.524-1.872-6.761-6.188-6.761-3.744,0-7.124,2.236-10.4,5.408.053.26.053,1.092.053,1.404v19.345h-1.925v-19.396c0-4.524-1.819-6.761-6.136-6.761-3.797,0-7.125,2.236-10.349,5.356v20.801h-1.924v-27.301Z" fill="#000" stroke-width="0"/>
      <path d="M1238.109,690.757c0-5.772,5.461-9.465,18.981-11.597v-1.924c0-4.213-2.08-6.553-6.24-6.553-4.784,0-7.904,2.132-10.505,4.524l-1.352-1.145c2.808-2.756,6.552-5.096,11.908-5.096,5.564,0,8.112,3.172,8.112,8.112v13.364c0,3.433.208,4.94.728,6.396h-2.027c-.416-1.196-.572-2.393-.624-4.42-2.86,2.651-6.812,5.044-11.337,5.044-4.888,0-7.645-2.496-7.645-6.708ZM1257.091,690.444v-9.776c-13.469,2.185-17.057,5.772-17.057,9.984,0,3.328,2.184,5.097,5.824,5.097,4.472,0,8.632-2.601,11.232-5.305Z" fill="#000" stroke-width="0"/>
      <path d="M1267.541,669.54h1.924v4.628c2.549-2.34,6.345-5.2,10.869-5.2,5.771,0,8.268,3.12,8.268,8.32v19.553h-1.871v-19.396c0-4.524-2.028-6.761-6.553-6.761-4.004,0-7.488,2.236-10.713,5.356v20.801h-1.924v-27.301Z" fill="#000" stroke-width="0"/>
      <path d="M1064.848,739.74c0-11.285,6.292-19.709,15.496-19.709,7.645,0,11.597,4.94,13.469,11.597l-1.924.52c-1.769-6.084-4.836-10.296-11.545-10.296-8.008,0-13.469,7.384-13.469,17.836,0,11.077,5.461,18.461,13.625,18.461,6.916,0,10.4-4.784,12.064-10.712l1.872.416c-1.508,6.084-5.824,12.116-13.937,12.116-9.517,0-15.652-8.425-15.652-20.229Z" fill="#000" stroke-width="0"/>
      <path d="M1100.363,745.616c0-9.62,5.771-14.249,11.439-14.249,6.137,0,10.661,5.045,10.661,13.885v.26h-20.177v.312c0,6.968,3.796,12.272,9.464,12.272,4.316,0,7.021-2.496,9.204-5.929l1.404.937c-2.236,3.692-5.512,6.708-10.66,6.708-6.656,0-11.336-6.032-11.336-14.196ZM1120.487,743.9c-.364-6.553-3.588-10.816-8.685-10.816-4.472,0-8.892,3.536-9.464,10.816h18.148Z" fill="#000" stroke-width="0"/>
      <path d="M1129.794,731.939h1.925v4.628c2.548-2.34,6.344-5.2,10.868-5.2,5.772,0,8.269,3.12,8.269,8.32v19.553h-1.873v-19.396c0-4.524-2.027-6.76-6.552-6.76-4.004,0-7.488,2.235-10.712,5.355v20.801h-1.925v-27.301Z" fill="#000" stroke-width="0"/>
      <path d="M1161.047,753.208v-19.5h-4.785v-1.769h4.785v-9.933h1.924v9.933h7.384v1.769h-7.384v19.396c0,3.016.988,4.732,4.576,4.732,1.04,0,1.976-.104,2.912-.364v1.82c-.885.155-2.08.312-3.12.312-4.524,0-6.292-2.028-6.292-6.396Z" fill="#000" stroke-width="0"/>
      <path d="M1174.618,745.616c0-9.62,5.772-14.249,11.44-14.249,6.137,0,10.66,5.045,10.66,13.885v.26h-20.177v.312c0,6.968,3.796,12.272,9.465,12.272,4.315,0,7.021-2.496,9.204-5.929l1.404.937c-2.236,3.692-5.513,6.708-10.66,6.708-6.656,0-11.337-6.032-11.337-14.196ZM1194.743,743.9c-.364-6.553-3.589-10.816-8.685-10.816-4.473,0-8.893,3.536-9.465,10.816h18.149Z" fill="#000" stroke-width="0"/>
      <path d="M1204.05,731.939h1.924v6.032c2.601-4.004,6.188-6.812,11.44-6.552l.884.052-.364,1.768-.884-.052c-4.784-.26-8.632,2.756-11.076,7.488v18.564h-1.924v-27.301Z" fill="#000" stroke-width="0"/>
    </g>
    <g>
      <path d="M706.614,1665.705c0-11.232,6.24-19.709,15.549-19.709,7.488,0,11.597,4.784,13.521,11.648l-1.924.521c-1.977-6.448-5.097-10.349-11.597-10.349-8.164,0-13.521,7.593-13.521,17.785,0,11.648,5.824,18.513,13.625,18.513,7.072,0,11.855-5.616,11.596-14.457h-10.088v-1.872h12.064v17.421h-1.977v-7.229c-1.611,4.16-5.46,7.956-11.648,7.956-8.944,0-15.601-7.748-15.601-20.229Z" fill="#000" stroke-width="0"/>
      <path d="M744.627,1657.905h1.924v6.032c2.6-4.005,6.188-6.812,11.44-6.553l.884.052-.363,1.769-.885-.052c-4.784-.261-8.632,2.756-11.076,7.488v18.564h-1.924v-27.301Z" fill="#000" stroke-width="0"/>
      <path d="M760.954,1679.122c0-5.772,5.46-9.465,18.98-11.597v-1.924c0-4.213-2.08-6.553-6.24-6.553-4.784,0-7.904,2.132-10.504,4.524l-1.353-1.145c2.809-2.756,6.553-5.096,11.908-5.096,5.564,0,8.113,3.172,8.113,8.112v13.364c0,3.433.207,4.94.728,6.396h-2.028c-.416-1.196-.572-2.393-.624-4.42-2.86,2.651-6.812,5.044-11.336,5.044-4.889,0-7.645-2.496-7.645-6.708ZM779.935,1678.81v-9.776c-13.468,2.185-17.057,5.772-17.057,9.984,0,3.328,2.185,5.097,5.824,5.097,4.473,0,8.633-2.601,11.232-5.305Z" fill="#000" stroke-width="0"/>
      <path d="M788.877,1671.581c0-9.672,5.721-14.248,11.701-14.248,5.304,0,8.061,3.12,9.88,7.332l-1.664.884c-1.664-4.004-3.899-6.5-8.32-6.5-4.628,0-9.672,3.588-9.672,12.48,0,7.385,4.004,12.532,9.517,12.532,4.367,0,6.604-2.34,8.736-6.656l1.56.78c-2.34,4.836-5.252,7.593-10.4,7.593-6.448,0-11.337-5.929-11.337-14.197Z" fill="#000" stroke-width="0"/>
      <path d="M815.345,1671.581c0-9.62,5.772-14.248,11.44-14.248,6.137,0,10.66,5.044,10.66,13.885v.26h-20.177v.312c0,6.969,3.796,12.272,9.465,12.272,4.315,0,7.021-2.496,9.204-5.928l1.404.936c-2.236,3.692-5.513,6.709-10.66,6.709-6.656,0-11.337-6.032-11.337-14.197ZM835.47,1669.865c-.364-6.552-3.589-10.816-8.685-10.816-4.473,0-8.893,3.536-9.465,10.816h18.149Z" fill="#000" stroke-width="0"/>
      <path d="M689.325,1709.124h2.028v17.109h23.036v-17.109h2.028v38.481h-2.028v-19.5h-23.036v19.5h-2.028v-38.481Z" fill="#000" stroke-width="0"/>
      <path d="M724.321,1733.981c0-8.685,5.304-14.249,11.856-14.249,6.5,0,11.856,5.564,11.856,14.249,0,8.528-5.356,14.196-11.856,14.196s-11.856-5.668-11.856-14.196ZM746.162,1733.93c0-6.969-4.004-12.48-9.984-12.48-5.824,0-9.933,5.252-9.933,12.48,0,6.968,3.952,12.532,9.933,12.532,5.824,0,9.984-5.305,9.984-12.532Z" fill="#000" stroke-width="0"/>
      <path d="M755.417,1720.305h1.924v4.212c2.08-2.235,5.252-4.784,9.517-4.784,6.448,0,11.389,4.629,11.389,14.197s-4.94,14.248-11.441,14.248c-4.056,0-7.02-2.184-9.464-4.784v14.612h-1.924v-37.701ZM776.321,1733.981c0-8.633-4.315-12.532-9.517-12.532-4.056,0-7.02,2.443-9.464,5.096v14.769c3.172,3.328,5.876,5.148,9.568,5.148,5.2,0,9.412-3.849,9.412-12.48Z" fill="#000" stroke-width="0"/>
      <path d="M785.68,1720.305h1.924v4.212c2.08-2.235,5.253-4.784,9.517-4.784,6.448,0,11.389,4.629,11.389,14.197s-4.94,14.248-11.44,14.248c-4.057,0-7.021-2.184-9.465-4.784v14.612h-1.924v-37.701ZM806.585,1733.981c0-8.633-4.316-12.532-9.517-12.532-4.057,0-7.021,2.443-9.465,5.096v14.769c3.173,3.328,5.877,5.148,9.568,5.148,5.201,0,9.413-3.849,9.413-12.48Z" fill="#000" stroke-width="0"/>
      <path d="M814.436,1733.981c0-9.62,5.771-14.249,11.439-14.249,6.137,0,10.661,5.045,10.661,13.885v.26h-20.177v.312c0,6.968,3.796,12.272,9.464,12.272,4.316,0,7.021-2.496,9.204-5.929l1.404.937c-2.236,3.692-5.512,6.708-10.66,6.708-6.656,0-11.336-6.032-11.336-14.196ZM834.56,1732.266c-.364-6.553-3.588-10.816-8.685-10.816-4.472,0-8.892,3.536-9.464,10.816h18.148Z" fill="#000" stroke-width="0"/>
      <path d="M843.866,1720.305h1.925v6.032c2.6-4.004,6.188-6.812,11.439-6.552l.885.052-.364,1.768-.884-.052c-4.784-.26-8.633,2.756-11.076,7.488v18.564h-1.925v-27.301Z" fill="#000" stroke-width="0"/>
    </g>
    <g>
      <path d="M321.389,1383.318h11.805c9.049,0,13.312,3.328,13.312,9.725,0,5.512-4.057,8.164-7.852,8.944,4.316.676,9.412,3.276,9.412,9.62,0,5.929-4.057,10.192-12.949,10.192h-13.729v-38.481ZM333.713,1401.104c6.501,0,10.766-2.549,10.766-7.957,0-5.771-3.693-7.956-11.232-7.956h-9.881v15.913h10.348ZM335.273,1419.979c7.281,0,10.765-3.172,10.765-8.372,0-5.824-4.576-8.632-12.116-8.632h-10.557v17.004h11.908Z" fill="#000" stroke-width="0"/>
      <path d="M353.733,1408.176c0-9.621,5.772-14.249,11.44-14.249,6.137,0,10.66,5.044,10.66,13.885v.26h-20.176v.312c0,6.968,3.795,12.272,9.463,12.272,4.316,0,7.021-2.496,9.205-5.929l1.404.937c-2.236,3.691-5.512,6.708-10.66,6.708-6.656,0-11.337-6.032-11.337-14.196ZM373.857,1406.459c-.363-6.552-3.588-10.816-8.684-10.816-4.473,0-8.893,3.536-9.465,10.816h18.148Z" fill="#000" stroke-width="0"/>
      <path d="M383.164,1394.499h1.925v6.032c2.601-4.004,6.188-6.812,11.44-6.553l.885.053-.365,1.768-.883-.052c-4.785-.26-8.633,2.756-11.077,7.488v18.564h-1.925v-27.301Z" fill="#000" stroke-width="0"/>
      <path d="M403.34,1383.318h1.924v27.509l14.977-16.328h2.34l-8.996,9.62,10.244,17.681h-2.131l-9.412-16.225s-6.085,6.553-7.021,7.54v8.685h-1.924v-38.481Z" fill="#000" stroke-width="0"/>
      <path d="M427.312,1408.176c0-9.621,5.771-14.249,11.439-14.249,6.137,0,10.66,5.044,10.66,13.885v.26h-20.176v.312c0,6.968,3.796,12.272,9.465,12.272,4.315,0,7.02-2.496,9.203-5.929l1.404.937c-2.236,3.691-5.512,6.708-10.66,6.708-6.656,0-11.336-6.032-11.336-14.196ZM447.438,1406.459c-.365-6.552-3.589-10.816-8.686-10.816-4.472,0-8.893,3.536-9.464,10.816h18.149Z" fill="#000" stroke-width="0"/>
      <path d="M457.004,1383.318h1.924v38.481h-1.924v-38.481Z" fill="#000" stroke-width="0"/>
      <path d="M466.52,1408.176c0-9.621,5.771-14.249,11.439-14.249,6.137,0,10.66,5.044,10.66,13.885v.26h-20.176v.312c0,6.968,3.796,12.272,9.465,12.272,4.315,0,7.02-2.496,9.203-5.929l1.404.937c-2.236,3.691-5.512,6.708-10.66,6.708-6.656,0-11.336-6.032-11.336-14.196ZM486.645,1406.459c-.365-6.552-3.589-10.816-8.686-10.816-4.472,0-8.893,3.536-9.464,10.816h18.149Z" fill="#000" stroke-width="0"/>
      <path d="M490.906,1431.732l.469-1.664c1.144.312,2.34.468,3.744.468,3.432,0,5.199-1.508,6.447-4.784l1.404-3.744-10.557-27.509h2.08l9.465,25.117,9.412-25.117h2.028l-11.96,31.253c-1.717,4.42-3.744,6.5-8.477,6.5-1.457,0-2.705-.155-4.057-.52Z" fill="#000" stroke-width="0"/>
      <path d="M334.338,1464.699c0-11.284,6.291-19.709,15.496-19.709,7.645,0,11.596,4.94,13.469,11.597l-1.924.52c-1.77-6.084-4.837-10.296-11.545-10.296-8.008,0-13.469,7.384-13.469,17.837,0,11.076,5.461,18.46,13.625,18.46,6.916,0,10.4-4.784,12.064-10.712l1.871.416c-1.508,6.084-5.824,12.116-13.936,12.116-9.518,0-15.652-8.424-15.652-20.229Z" fill="#000" stroke-width="0"/>
      <path d="M369.853,1470.575c0-8.685,5.304-14.248,11.856-14.248,6.5,0,11.856,5.563,11.856,14.248,0,8.528-5.356,14.196-11.856,14.196s-11.856-5.668-11.856-14.196ZM391.693,1470.523c0-6.969-4.004-12.48-9.984-12.48-5.824,0-9.932,5.252-9.932,12.48,0,6.968,3.951,12.532,9.932,12.532,5.824,0,9.984-5.304,9.984-12.532Z" fill="#000" stroke-width="0"/>
      <path d="M401.208,1445.719h1.925v38.481h-1.925v-38.481Z" fill="#000" stroke-width="0"/>
      <path d="M412.492,1445.719h1.924v38.481h-1.924v-38.481Z" fill="#000" stroke-width="0"/>
      <path d="M422.008,1470.575c0-9.62,5.771-14.248,11.439-14.248,6.137,0,10.66,5.044,10.66,13.884v.261h-20.176v.312c0,6.969,3.796,12.272,9.465,12.272,4.315,0,7.02-2.496,9.203-5.928l1.404.936c-2.236,3.692-5.512,6.708-10.66,6.708-6.656,0-11.336-6.032-11.336-14.196ZM442.133,1468.859c-.365-6.553-3.589-10.816-8.686-10.816-4.472,0-8.893,3.536-9.464,10.816h18.149Z" fill="#000" stroke-width="0"/>
      <path d="M448.371,1487.892c0-3.172,2.652-5.46,5.512-6.604-1.82-.624-2.704-1.664-2.704-3.484,0-1.508,1.3-2.912,3.224-3.9-2.547-1.664-4.107-4.472-4.107-7.853,0-5.563,4.42-9.724,10.297-9.724,2.756,0,5.199.884,7.02,2.496,1.768-1.145,4.264-2.288,6.448-2.601v2.028c-1.925.156-4.005.78-5.408,1.612,1.456,1.611,2.235,3.744,2.235,6.188,0,5.721-4.42,9.621-10.295,9.621-1.717,0-3.381-.364-4.732-.988-1.769.78-2.809,1.82-2.809,3.016,0,1.509,1.145,2.133,4.939,2.496.365.053,4.369.416,4.889.416,6.293.469,10.244,2.288,10.244,6.656,0,4.316-4.68,7.333-12.221,7.333-8.06,0-12.531-2.341-12.531-6.709ZM471.199,1487.372c0-3.484-3.535-4.681-8.943-5.097-.521,0-4.16-.312-4.576-.363-.625-.053-1.197-.104-1.717-.208-3.225,1.092-5.668,3.328-5.668,6.084,0,3.432,3.796,5.148,10.66,5.148,6.553,0,10.244-2.393,10.244-5.564ZM469.016,1466.051c0-4.628-3.225-8.06-8.424-8.06-5.148,0-8.426,3.483-8.426,8.06s3.328,7.904,8.426,7.904,8.424-3.328,8.424-7.904Z" fill="#000" stroke-width="0"/>
      <path d="M477.334,1470.575c0-9.62,5.771-14.248,11.44-14.248,6.136,0,10.661,5.044,10.661,13.884v.261h-20.178v.312c0,6.969,3.797,12.272,9.465,12.272,4.316,0,7.02-2.496,9.204-5.928l1.403.936c-2.235,3.692-5.512,6.708-10.66,6.708-6.656,0-11.336-6.032-11.336-14.196ZM497.459,1468.859c-.364-6.553-3.588-10.816-8.685-10.816-4.472,0-8.892,3.536-9.464,10.816h18.148Z" fill="#000" stroke-width="0"/>
    </g>
    <g>
      <path d="M862.41,989.631h2.08l9.464,35.257,8.788-35.257h2.289l9.204,35.257,8.996-35.257h2.028l-10.037,38.481h-2.132l-9.256-35.465-8.893,35.465h-2.08l-10.452-38.481Z" fill="#000" stroke-width="0"/>
      <path d="M908.17,1014.488c0-8.684,5.304-14.249,11.855-14.249,6.501,0,11.857,5.564,11.857,14.249,0,8.528-5.356,14.197-11.857,14.197s-11.855-5.668-11.855-14.197ZM930.01,1014.436c0-6.968-4.004-12.48-9.984-12.48-5.824,0-9.932,5.252-9.932,12.48,0,6.969,3.952,12.533,9.932,12.533,5.824,0,9.984-5.304,9.984-12.533Z" fill="#000" stroke-width="0"/>
      <path d="M937.757,1014.488c0-8.684,5.304-14.249,11.856-14.249,6.5,0,11.856,5.564,11.856,14.249,0,8.528-5.356,14.197-11.856,14.197s-11.856-5.668-11.856-14.197ZM959.598,1014.436c0-6.968-4.004-12.48-9.984-12.48-5.824,0-9.933,5.252-9.933,12.48,0,6.969,3.952,12.533,9.933,12.533,5.824,0,9.984-5.304,9.984-12.533Z" fill="#000" stroke-width="0"/>
      <path d="M967.448,1014.488c0-9.568,4.992-14.249,11.44-14.249,4.057,0,7.021,2.184,9.465,4.784v-15.393h1.924v32.085c0,3.433.208,4.94.728,6.396h-2.028c-.416-1.196-.623-2.756-.623-4.212-2.08,2.236-5.253,4.784-9.517,4.784-6.448,0-11.389-4.628-11.389-14.197ZM988.354,1021.872v-14.769c-3.173-3.328-5.877-5.148-9.568-5.148-5.201,0-9.465,3.849-9.465,12.48s4.368,12.533,9.568,12.533c4.057,0,7.021-2.444,9.465-5.096Z" fill="#000" stroke-width="0"/>
      <path d="M1001.039,1023.9v4.212h-1.924v-38.481h1.924v15.393c2.08-2.236,5.253-4.784,9.517-4.784,6.448,0,11.389,4.628,11.389,14.196s-4.94,14.249-11.44,14.249c-4.057,0-7.021-2.185-9.465-4.784ZM1020.021,1014.488c0-8.632-4.316-12.533-9.517-12.533-4.057,0-7.021,2.444-9.465,5.097v14.769c3.173,3.328,5.877,5.148,9.568,5.148,5.201,0,9.413-3.848,9.413-12.48Z" fill="#000" stroke-width="0"/>
      <path d="M1029.379,1000.812h1.924v6.032c2.6-4.004,6.188-6.812,11.44-6.553l.884.052-.363,1.768-.885-.052c-4.784-.26-8.632,2.756-11.076,7.488v18.564h-1.924v-27.301Z" fill="#000" stroke-width="0"/>
      <path d="M1049.658,991.035h2.236v2.756h-2.236v-2.756ZM1049.814,1000.812h1.924v27.301h-1.924v-27.301Z" fill="#000" stroke-width="0"/>
      <path d="M1059.434,1014.488c0-9.568,4.992-14.249,11.44-14.249,4.056,0,7.021,2.184,9.464,4.784v-15.393h1.925v32.085c0,3.433.208,4.94.728,6.396h-2.027c-.416-1.196-.625-2.756-.625-4.212-2.08,2.236-5.252,4.784-9.516,4.784-6.448,0-11.389-4.628-11.389-14.197ZM1080.338,1021.872v-14.769c-3.172-3.328-5.876-5.148-9.568-5.148-5.199,0-9.464,3.849-9.464,12.48s4.368,12.533,9.568,12.533c4.056,0,7.021-2.444,9.464-5.096Z" fill="#000" stroke-width="0"/>
      <path d="M1088.033,1031.805c0-3.172,2.651-5.46,5.512-6.604-1.82-.624-2.704-1.664-2.704-3.484,0-1.508,1.3-2.912,3.224-3.9-2.548-1.664-4.107-4.472-4.107-7.852,0-5.564,4.42-9.725,10.296-9.725,2.757,0,5.2.884,7.021,2.496,1.768-1.144,4.264-2.288,6.448-2.6v2.028c-1.924.156-4.004.78-5.408,1.612,1.456,1.612,2.236,3.744,2.236,6.188,0,5.72-4.421,9.62-10.297,9.62-1.716,0-3.38-.364-4.731-.988-1.769.78-2.809,1.82-2.809,3.017,0,1.508,1.145,2.132,4.94,2.496.364.052,4.368.416,4.888.416,6.293.468,10.244,2.288,10.244,6.656,0,4.316-4.68,7.332-12.22,7.332-8.061,0-12.532-2.34-12.532-6.708ZM1110.861,1031.284c0-3.484-3.536-4.68-8.944-5.096-.52,0-4.16-.312-4.576-.364-.624-.052-1.196-.104-1.716-.208-3.225,1.092-5.668,3.328-5.668,6.084,0,3.433,3.796,5.148,10.66,5.148,6.553,0,10.244-2.392,10.244-5.564ZM1108.678,1009.964c0-4.628-3.225-8.061-8.425-8.061-5.147,0-8.424,3.484-8.424,8.061s3.328,7.904,8.424,7.904,8.425-3.328,8.425-7.904Z" fill="#000" stroke-width="0"/>
      <path d="M1116.996,1014.488c0-9.621,5.772-14.249,11.44-14.249,6.136,0,10.66,5.044,10.66,13.885v.26h-20.177v.312c0,6.968,3.797,12.272,9.465,12.272,4.316,0,7.02-2.496,9.204-5.928l1.404.936c-2.236,3.692-5.513,6.708-10.661,6.708-6.656,0-11.336-6.032-11.336-14.197ZM1137.121,1012.771c-.364-6.552-3.588-10.816-8.685-10.816-4.472,0-8.893,3.536-9.464,10.816h18.148Z" fill="#000" stroke-width="0"/>
      <path d="M962.3,1052.031h2.028v17.109h23.036v-17.109h2.028v38.481h-2.028v-19.5h-23.036v19.5h-2.028v-38.481Z" fill="#000" stroke-width="0"/>
      <path d="M997.451,1084.428c0-5.772,5.46-9.464,18.98-11.596v-1.924c0-4.212-2.08-6.552-6.24-6.552-4.784,0-7.904,2.132-10.504,4.524l-1.353-1.144c2.809-2.756,6.553-5.096,11.909-5.096,5.563,0,8.111,3.172,8.111,8.112v13.365c0,3.432.209,4.94.729,6.396h-2.028c-.416-1.196-.571-2.392-.624-4.42-2.859,2.652-6.812,5.044-11.336,5.044-4.889,0-7.645-2.496-7.645-6.708ZM1016.432,1084.116v-9.776c-13.469,2.184-17.057,5.772-17.057,9.984,0,3.328,2.185,5.096,5.824,5.096,4.473,0,8.633-2.6,11.232-5.304Z" fill="#000" stroke-width="0"/>
      <path d="M1027.143,1052.031h1.924v38.481h-1.924v-38.481Z" fill="#000" stroke-width="0"/>
      <path d="M1038.426,1052.031h1.925v38.481h-1.925v-38.481Z" fill="#000" stroke-width="0"/>
    </g>
    <g>
      <path d="M876.081,816.631h14.561c7.696,0,13.417,2.496,13.417,9.568,0,5.356-2.912,8.061-6.812,8.84v.104c4.732.884,7.956,3.536,7.956,9.412,0,7.072-5.772,10.557-13.624,10.557h-15.497v-38.481ZM890.018,832.699c5.096,0,7.801-1.56,7.801-5.252s-2.341-5.096-7.697-5.096h-7.644v10.348h7.54ZM890.901,849.496c5.513,0,7.904-1.768,7.904-5.616,0-4.108-3.12-5.668-8.58-5.668h-7.748v11.284h8.424Z" fill="#000" stroke-width="0"/>
      <path d="M909.829,841.332c0-10.505,7.437-14.353,13.156-14.353,6.188,0,12.116,3.692,12.116,14.924v1.508h-18.877c.261,4.992,3.328,7.176,7.385,7.176,3.588,0,5.668-1.196,7.748-3.224l3.381,3.328c-2.86,3.172-6.656,4.992-11.597,4.992-6.917,0-13.312-4.212-13.312-14.353ZM929.226,838.628c-.364-4.212-2.444-6.448-6.292-6.448-3.12,0-5.98,1.768-6.604,6.448h12.896Z" fill="#000" stroke-width="0"/>
      <path d="M940.925,817.151h6.553v5.564h-6.553v-5.564ZM940.977,827.499h6.449v27.613h-6.449v-27.613Z" fill="#000" stroke-width="0"/>
      <path d="M954.86,827.499h6.448v3.744c1.769-1.872,5.097-4.264,10.089-4.264,4.836,0,7.956,2.86,7.956,8.32v19.812h-6.448v-18.201c0-3.068-1.3-4.472-4.108-4.472s-5.148,1.456-7.488,3.588v19.085h-6.448v-27.613Z" fill="#000" stroke-width="0"/>
      <path d="M984.656,841.332c0-10.505,7.436-14.353,13.156-14.353,6.188,0,12.116,3.692,12.116,14.924v1.508h-18.876c.26,4.992,3.328,7.176,7.384,7.176,3.588,0,5.668-1.196,7.748-3.224l3.38,3.328c-2.859,3.172-6.656,4.992-11.596,4.992-6.916,0-13.312-4.212-13.312-14.353ZM1004.053,838.628c-.364-4.212-2.444-6.448-6.292-6.448-3.12,0-5.98,1.768-6.604,6.448h12.896Z" fill="#000" stroke-width="0"/>
      <path d="M1013.984,841.332c0-10.557,7.124-14.353,13.26-14.353,6.865,0,9.777,3.796,11.441,8.06l-5.408,1.924c-1.093-3.12-3.068-4.628-6.137-4.628-3.641,0-6.708,2.392-6.708,8.997,0,5.876,2.392,9.1,6.604,9.1,2.912,0,4.939-.884,6.447-4.784l5.305,1.924c-1.977,4.42-5.252,8.112-11.908,8.112-6.396,0-12.896-4.265-12.896-14.353Z" fill="#000" stroke-width="0"/>
      <path d="M1043.884,816.631h6.396v22.933l10.452-12.064h7.021l-8.996,10.089,9.776,17.524h-6.709l-7.124-12.792-4.42,4.836v7.956h-6.396v-38.481Z" fill="#000" stroke-width="0"/>
      <path d="M1070.3,841.332c0-10.505,7.437-14.353,13.156-14.353,6.188,0,12.116,3.692,12.116,14.924v1.508h-18.877c.261,4.992,3.328,7.176,7.385,7.176,3.588,0,5.668-1.196,7.748-3.224l3.381,3.328c-2.86,3.172-6.656,4.992-11.597,4.992-6.917,0-13.312-4.212-13.312-14.353ZM1089.696,838.628c-.364-4.212-2.444-6.448-6.292-6.448-3.12,0-5.98,1.768-6.604,6.448h12.896Z" fill="#000" stroke-width="0"/>
      <path d="M922.075,879.031h13.469c8.32,0,14.82,2.912,14.82,11.804,0,9.309-7.124,12.064-15.028,12.064h-6.812v14.613h-6.448v-38.481ZM935.647,897.231c5.721,0,8.32-1.768,8.32-6.188,0-4.264-2.6-6.084-8.372-6.084h-7.072v12.272h7.124Z" fill="#000" stroke-width="0"/>
      <path d="M956.031,879.031h6.447v38.481h-6.447v-38.481Z" fill="#000" stroke-width="0"/>
      <path d="M968.146,910.856c0-5.98,5.096-9.984,17.992-11.44v-.832c0-2.756-1.456-3.952-4.523-3.952-3.849,0-6.969,1.872-9.309,3.744l-3.12-4.004c2.964-2.704,7.592-4.992,13.312-4.992,7.384,0,9.933,3.536,9.933,9.984v11.389c0,3.328.207,5.356.779,6.76h-6.448c-.364-1.144-.624-1.976-.624-3.536-2.808,2.86-6.084,3.952-10.192,3.952-4.472,0-7.8-2.496-7.8-7.072ZM986.139,909.816v-6.084c-7.645,1.04-11.7,2.912-11.7,5.929,0,2.184,1.508,3.328,3.849,3.328,3.275,0,5.824-1.248,7.852-3.172Z" fill="#000" stroke-width="0"/>
      <path d="M997.474,913.82l14.717-18.825h-13.625v-5.096h21.633v3.848l-14.769,18.825h15.652v4.94h-23.608v-3.692Z" fill="#000" stroke-width="0"/>
      <path d="M1024.046,910.856c0-5.98,5.096-9.984,17.992-11.44v-.832c0-2.756-1.456-3.952-4.524-3.952-3.848,0-6.968,1.872-9.308,3.744l-3.12-4.004c2.964-2.704,7.592-4.992,13.312-4.992,7.384,0,9.932,3.536,9.932,9.984v11.389c0,3.328.209,5.356.78,6.76h-6.448c-.363-1.144-.624-1.976-.624-3.536-2.808,2.86-6.084,3.952-10.192,3.952-4.472,0-7.8-2.496-7.8-7.072ZM1042.038,909.816v-6.084c-7.644,1.04-11.7,2.912-11.7,5.929,0,2.184,1.508,3.328,3.848,3.328,3.276,0,5.824-1.248,7.853-3.172Z" fill="#000" stroke-width="0"/>
    </g>
  </g>
  <g id="smallNames">
    <g>
      <path d="M998.541,660.073l.646-.17c.527,1.87,1.666,2.958,3.876,2.958,2.107,0,3.467-1.037,3.467-2.652,0-1.581-.713-2.312-3.568-3.229-2.856-.918-3.876-1.632-3.876-3.587,0-1.615,1.462-2.992,3.688-2.992,2.295,0,3.569,1.258,4.097,2.924l-.629.204c-.578-1.683-1.683-2.533-3.468-2.533-1.904,0-3.025,1.105-3.025,2.38,0,1.598.918,2.176,3.586,3.042,2.737.884,3.859,1.683,3.859,3.773,0,2.04-1.785,3.264-4.148,3.264-2.566,0-3.943-1.36-4.504-3.382Z" fill="gray" stroke-width="0"/>
      <path d="M1009.183,658.764c0-3.162,1.87-4.658,3.824-4.658,1.733,0,2.635,1.02,3.229,2.397l-.543.289c-.545-1.309-1.275-2.125-2.721-2.125-1.513,0-3.161,1.173-3.161,4.08,0,2.414,1.309,4.097,3.11,4.097,1.428,0,2.158-.765,2.855-2.176l.51.255c-.764,1.581-1.717,2.482-3.398,2.482-2.108,0-3.706-1.938-3.706-4.641Z" fill="gray" stroke-width="0"/>
      <path d="M1018.617,650.639h.629v5.167c.833-.765,2.074-1.7,3.553-1.7,1.887,0,2.703,1.02,2.703,2.72v6.392h-.612v-6.34c0-1.479-.663-2.21-2.142-2.21-1.309,0-2.448.731-3.502,1.751v6.799h-.629v-12.579Z" fill="gray" stroke-width="0"/>
      <path d="M1027.219,654.293h.646l2.465,8.041,2.295-8.041h.646l2.413,8.041,2.346-8.041h.629l-2.702,8.958h-.596l-2.414-8.091-2.311,8.091h-.596l-2.822-8.958Z" fill="gray" stroke-width="0"/>
      <path d="M1039.748,661.229c0-1.887,1.785-3.094,6.205-3.791v-.629c0-1.377-.68-2.142-2.04-2.142-1.563,0-2.584.697-3.434,1.479l-.442-.374c.918-.901,2.143-1.666,3.893-1.666,1.819,0,2.652,1.037,2.652,2.652v4.369c0,1.122.068,1.615.238,2.091h-.664c-.135-.391-.187-.782-.203-1.445-.936.867-2.227,1.649-3.706,1.649-1.598,0-2.499-.816-2.499-2.193ZM1045.953,661.127v-3.196c-4.402.714-5.576,1.887-5.576,3.264,0,1.088.715,1.666,1.904,1.666,1.462,0,2.822-.85,3.672-1.734Z" fill="gray" stroke-width="0"/>
      <path d="M1049.37,654.293h.629v1.972c.851-1.309,2.022-2.227,3.739-2.142l.289.017-.119.578-.289-.017c-1.563-.085-2.821.901-3.62,2.448v6.068h-.629v-8.924Z" fill="gray" stroke-width="0"/>
      <path d="M1055.473,654.293h6.171v.459l-5.779,7.904h5.983v.561h-6.766v-.459l5.746-7.904h-5.355v-.561Z" fill="gray" stroke-width="0"/>
      <path d="M1064.16,654.293h.629v1.513c.833-.765,2.04-1.7,3.434-1.7,1.462,0,2.227.697,2.482,1.751,1.02-.901,2.209-1.751,3.535-1.751,1.802,0,2.584,1.02,2.584,2.72v6.392h-.612v-6.34c0-1.479-.612-2.21-2.022-2.21-1.225,0-2.329.731-3.4,1.768.018.085.018.357.018.459v6.323h-.629v-6.34c0-1.479-.596-2.21-2.006-2.21-1.241,0-2.329.731-3.383,1.751v6.799h-.629v-8.924Z" fill="gray" stroke-width="0"/>
      <path d="M1079.086,661.229c0-1.887,1.785-3.094,6.205-3.791v-.629c0-1.377-.68-2.142-2.04-2.142-1.563,0-2.584.697-3.434,1.479l-.442-.374c.918-.901,2.143-1.666,3.893-1.666,1.819,0,2.652,1.037,2.652,2.652v4.369c0,1.122.068,1.615.238,2.091h-.664c-.135-.391-.187-.782-.203-1.445-.936.867-2.227,1.649-3.706,1.649-1.598,0-2.499-.816-2.499-2.193ZM1085.291,661.127v-3.196c-4.402.714-5.576,1.887-5.576,3.264,0,1.088.715,1.666,1.904,1.666,1.462,0,2.822-.85,3.672-1.734Z" fill="gray" stroke-width="0"/>
      <path d="M1088.708,654.293h.629v1.513c.833-.765,2.073-1.7,3.553-1.7,1.887,0,2.702,1.02,2.702,2.72v6.392h-.611v-6.34c0-1.479-.663-2.21-2.142-2.21-1.31,0-2.448.731-3.502,1.751v6.799h-.629v-8.924Z" fill="gray" stroke-width="0"/>
      <path d="M1101.679,656.843c0-3.688,2.057-6.442,5.065-6.442,2.498,0,3.791,1.615,4.402,3.791l-.629.17c-.578-1.989-1.58-3.366-3.773-3.366-2.617,0-4.402,2.414-4.402,5.83,0,3.621,1.785,6.035,4.453,6.035,2.261,0,3.4-1.564,3.943-3.501l.612.136c-.493,1.989-1.903,3.96-4.556,3.96-3.11,0-5.116-2.753-5.116-6.612Z" fill="gray" stroke-width="0"/>
      <path d="M1113.289,658.764c0-3.145,1.887-4.658,3.74-4.658,2.006,0,3.484,1.649,3.484,4.539v.085h-6.596v.102c0,2.278,1.241,4.012,3.094,4.012,1.411,0,2.295-.816,3.009-1.938l.459.306c-.731,1.207-1.802,2.193-3.484,2.193-2.176,0-3.706-1.972-3.706-4.641ZM1119.867,658.203c-.119-2.142-1.172-3.536-2.838-3.536-1.463,0-2.907,1.156-3.094,3.536h5.932Z" fill="gray" stroke-width="0"/>
      <path d="M1122.911,654.293h.629v1.513c.833-.765,2.073-1.7,3.553-1.7,1.887,0,2.702,1.02,2.702,2.72v6.392h-.611v-6.34c0-1.479-.663-2.21-2.142-2.21-1.31,0-2.448.731-3.502,1.751v6.799h-.629v-8.924Z" fill="gray" stroke-width="0"/>
      <path d="M1133.128,661.246v-6.375h-1.563v-.578h1.563v-3.247h.629v3.247h2.414v.578h-2.414v6.34c0,.986.323,1.547,1.496,1.547.34,0,.646-.034.952-.119v.595c-.289.051-.68.102-1.021.102-1.479,0-2.057-.663-2.057-2.091Z" fill="gray" stroke-width="0"/>
      <path d="M1137.564,658.764c0-3.145,1.887-4.658,3.74-4.658,2.006,0,3.484,1.649,3.484,4.539v.085h-6.596v.102c0,2.278,1.241,4.012,3.094,4.012,1.411,0,2.295-.816,3.009-1.938l.459.306c-.731,1.207-1.802,2.193-3.484,2.193-2.176,0-3.706-1.972-3.706-4.641ZM1144.143,658.203c-.119-2.142-1.172-3.536-2.838-3.536-1.463,0-2.907,1.156-3.094,3.536h5.932Z" fill="gray" stroke-width="0"/>
      <path d="M1147.187,654.293h.629v1.972c.851-1.309,2.022-2.227,3.739-2.142l.289.017-.119.578-.289-.017c-1.563-.085-2.821.901-3.62,2.448v6.068h-.629v-8.924Z" fill="gray" stroke-width="0"/>
    </g>
    <g>
      <path d="M1216.69,788.254h.68l3.094,11.525,2.872-11.525h.748l3.01,11.525,2.939-11.525h.664l-3.281,12.579h-.697l-3.025-11.593-2.906,11.593h-.68l-3.417-12.579Z" fill="gray" stroke-width="0"/>
      <path d="M1231.65,796.379c0-2.839,1.732-4.658,3.875-4.658,2.125,0,3.875,1.819,3.875,4.658,0,2.788-1.75,4.641-3.875,4.641s-3.875-1.853-3.875-4.641ZM1238.789,796.362c0-2.278-1.309-4.08-3.264-4.08-1.904,0-3.246,1.717-3.246,4.08,0,2.278,1.291,4.097,3.246,4.097,1.904,0,3.264-1.734,3.264-4.097Z" fill="gray" stroke-width="0"/>
      <path d="M1241.322,796.379c0-2.839,1.734-4.658,3.876-4.658,2.124,0,3.876,1.819,3.876,4.658,0,2.788-1.752,4.641-3.876,4.641s-3.876-1.853-3.876-4.641ZM1248.462,796.362c0-2.278-1.31-4.08-3.264-4.08-1.903,0-3.247,1.717-3.247,4.08,0,2.278,1.292,4.097,3.247,4.097,1.903,0,3.264-1.734,3.264-4.097Z" fill="gray" stroke-width="0"/>
      <path d="M1251.573,788.254h.629v12.579h-.629v-12.579Z" fill="gray" stroke-width="0"/>
      <path d="M1254.616,799.371l.476-.357c.629.867,1.514,1.445,2.822,1.445,1.717,0,2.703-.731,2.703-1.921,0-1.207-.969-1.7-2.788-2.159-2.04-.544-2.958-1.071-2.958-2.499,0-1.122,1.003-2.159,2.873-2.159,1.496,0,2.447.595,3.127,1.326l-.459.425c-.629-.714-1.41-1.19-2.686-1.19-1.563,0-2.227.782-2.227,1.581,0,1.088.85,1.496,2.414,1.904,2.176.595,3.314,1.139,3.314,2.771,0,1.53-1.343,2.482-3.314,2.482-1.547,0-2.652-.714-3.298-1.649Z" fill="gray" stroke-width="0"/>
      <path d="M1263.014,796.379c0-3.145,1.888-4.658,3.74-4.658,2.006,0,3.484,1.649,3.484,4.539v.085h-6.595v.102c0,2.278,1.241,4.012,3.093,4.012,1.412,0,2.295-.816,3.01-1.938l.459.306c-.731,1.207-1.803,2.193-3.484,2.193-2.176,0-3.707-1.972-3.707-4.641ZM1269.593,795.818c-.119-2.142-1.173-3.536-2.839-3.536-1.462,0-2.906,1.156-3.094,3.536h5.933Z" fill="gray" stroke-width="0"/>
      <path d="M1270.988,804.079l.152-.544c.374.102.766.153,1.225.153,1.121,0,1.699-.493,2.107-1.563l.459-1.224-3.451-8.992h.68l3.094,8.21,3.077-8.21h.663l-3.91,10.216c-.561,1.445-1.224,2.125-2.771,2.125-.476,0-.884-.051-1.325-.17Z" fill="gray" stroke-width="0"/>
      <path d="M1284.943,788.254h3.928c2.77,0,4.232,1.275,4.232,3.264,0,1.887-1.225,2.975-3.281,3.229l3.383,6.085h-.766l-3.348-6.018h-3.484v6.018h-.664v-12.579ZM1288.854,794.237c2.312,0,3.586-.884,3.586-2.703,0-1.768-1.258-2.669-3.604-2.669h-3.229v5.372h3.246Z" fill="gray" stroke-width="0"/>
      <path d="M1295.213,796.379c0-2.839,1.732-4.658,3.875-4.658,2.125,0,3.875,1.819,3.875,4.658,0,2.788-1.75,4.641-3.875,4.641s-3.875-1.853-3.875-4.641ZM1302.352,796.362c0-2.278-1.309-4.08-3.264-4.08-1.904,0-3.246,1.717-3.246,4.08,0,2.278,1.291,4.097,3.246,4.097,1.904,0,3.264-1.734,3.264-4.097Z" fill="gray" stroke-width="0"/>
      <path d="M1305.922,798.861v-6.375h-1.564v-.578h1.564v-3.247h.629v3.247h2.414v.578h-2.414v6.34c0,.986.323,1.547,1.496,1.547.34,0,.646-.034.951-.119v.595c-.289.051-.68.102-1.02.102-1.479,0-2.057-.663-2.057-2.091Z" fill="gray" stroke-width="0"/>
      <path d="M1310.987,798.3v-6.392h.629v6.34c0,1.479.646,2.21,2.125,2.21,1.31,0,2.448-.731,3.519-1.751v-6.799h.629v8.924h-.629v-1.513c-.833.765-2.091,1.7-3.553,1.7-1.904,0-2.72-1.02-2.72-2.72Z" fill="gray" stroke-width="0"/>
      <path d="M1320.779,791.908h.629v1.513c.833-.765,2.074-1.7,3.553-1.7,1.887,0,2.703,1.02,2.703,2.72v6.392h-.612v-6.34c0-1.479-.663-2.21-2.142-2.21-1.309,0-2.447.731-3.502,1.751v6.799h-.629v-8.924Z" fill="gray" stroke-width="0"/>
      <path d="M1329.993,796.379c0-3.127,1.632-4.658,3.739-4.658,1.326,0,2.295.714,3.094,1.564v-5.031h.629v10.488c0,1.122.068,1.615.238,2.091h-.662c-.137-.391-.205-.901-.205-1.377-.68.731-1.717,1.564-3.11,1.564-2.108,0-3.723-1.513-3.723-4.641ZM1336.826,798.792v-4.827c-1.037-1.088-1.92-1.683-3.127-1.683-1.7,0-3.094,1.258-3.094,4.08s1.428,4.097,3.127,4.097c1.326,0,2.295-.799,3.094-1.666Z" fill="gray" stroke-width="0"/>
      <path d="M1339.818,798.844c0-1.887,1.785-3.094,6.205-3.791v-.629c0-1.377-.68-2.142-2.04-2.142-1.563,0-2.584.697-3.434,1.479l-.442-.374c.918-.901,2.143-1.666,3.893-1.666,1.819,0,2.652,1.037,2.652,2.652v4.369c0,1.122.068,1.615.238,2.091h-.664c-.135-.391-.187-.782-.203-1.445-.936.867-2.227,1.649-3.706,1.649-1.598,0-2.499-.816-2.499-2.193ZM1346.023,798.742v-3.196c-4.402.714-5.576,1.887-5.576,3.264,0,1.088.715,1.666,1.904,1.666,1.462,0,2.822-.85,3.672-1.734Z" fill="gray" stroke-width="0"/>
    </g>
    <g>
      <path d="M935.188,1022.254h.68l3.094,11.525,2.873-11.525h.748l3.009,11.525,2.94-11.525h.663l-3.28,12.579h-.697l-3.025-11.593-2.907,11.593h-.68l-3.417-12.579Z" fill="gray" stroke-width="0"/>
      <path d="M950.146,1030.379c0-2.839,1.734-4.658,3.877-4.658,2.124,0,3.875,1.819,3.875,4.658,0,2.788-1.751,4.641-3.875,4.641s-3.877-1.853-3.877-4.641ZM957.287,1030.362c0-2.278-1.31-4.08-3.264-4.08-1.904,0-3.247,1.717-3.247,4.08,0,2.278,1.292,4.097,3.247,4.097,1.903,0,3.264-1.734,3.264-4.097Z" fill="gray" stroke-width="0"/>
      <path d="M959.82,1030.379c0-2.839,1.733-4.658,3.875-4.658,2.125,0,3.876,1.819,3.876,4.658,0,2.788-1.751,4.641-3.876,4.641s-3.875-1.853-3.875-4.641ZM966.959,1030.362c0-2.278-1.309-4.08-3.264-4.08-1.903,0-3.246,1.717-3.246,4.08,0,2.278,1.291,4.097,3.246,4.097,1.904,0,3.264-1.734,3.264-4.097Z" fill="gray" stroke-width="0"/>
      <path d="M969.527,1030.379c0-3.127,1.631-4.658,3.739-4.658,1.325,0,2.295.714,3.094,1.564v-5.031h.629v10.488c0,1.122.067,1.615.237,2.091h-.662c-.137-.391-.204-.901-.204-1.377-.681.731-1.717,1.564-3.11,1.564-2.108,0-3.723-1.513-3.723-4.641ZM976.36,1032.792v-4.827c-1.037-1.088-1.921-1.683-3.128-1.683-1.699,0-3.094,1.258-3.094,4.08s1.428,4.097,3.128,4.097c1.325,0,2.295-.799,3.094-1.666Z" fill="gray" stroke-width="0"/>
      <path d="M980.508,1033.456v1.377h-.629v-12.579h.629v5.031c.681-.731,1.717-1.564,3.111-1.564,2.107,0,3.723,1.513,3.723,4.641s-1.615,4.658-3.74,4.658c-1.325,0-2.295-.714-3.094-1.564ZM986.713,1030.379c0-2.822-1.411-4.097-3.111-4.097-1.325,0-2.295.799-3.094,1.666v4.828c1.037,1.088,1.922,1.683,3.129,1.683,1.699,0,3.076-1.258,3.076-4.08Z" fill="gray" stroke-width="0"/>
      <path d="M989.773,1025.908h.629v1.972c.85-1.309,2.022-2.227,3.739-2.142l.289.017-.119.578-.289-.017c-1.563-.085-2.821.901-3.62,2.448v6.068h-.629v-8.924Z" fill="gray" stroke-width="0"/>
      <path d="M996.402,1022.713h.731v.901h-.731v-.901ZM996.453,1025.908h.629v8.924h-.629v-8.924Z" fill="gray" stroke-width="0"/>
      <path d="M999.599,1030.379c0-3.127,1.632-4.658,3.739-4.658,1.326,0,2.295.714,3.094,1.564v-5.031h.629v10.488c0,1.122.068,1.615.238,2.091h-.662c-.137-.391-.205-.901-.205-1.377-.68.731-1.717,1.564-3.11,1.564-2.108,0-3.723-1.513-3.723-4.641ZM1006.432,1032.792v-4.827c-1.037-1.088-1.92-1.683-3.127-1.683-1.7,0-3.094,1.258-3.094,4.08s1.428,4.097,3.127,4.097c1.326,0,2.295-.799,3.094-1.666Z" fill="gray" stroke-width="0"/>
      <path d="M1008.948,1036.04c0-1.037.867-1.785,1.802-2.159-.595-.204-.884-.544-.884-1.139,0-.493.425-.952,1.054-1.275-.832-.544-1.343-1.462-1.343-2.567,0-1.818,1.444-3.179,3.366-3.179.9,0,1.699.289,2.295.816.577-.374,1.393-.748,2.107-.85v.663c-.629.051-1.309.255-1.768.527.476.527.73,1.224.73,2.022,0,1.87-1.445,3.145-3.365,3.145-.562,0-1.105-.119-1.547-.323-.578.255-.918.595-.918.986,0,.493.373.697,1.614.816.119.017,1.429.136,1.599.136,2.057.153,3.348.748,3.348,2.176,0,1.411-1.529,2.396-3.994,2.396-2.635,0-4.097-.765-4.097-2.192ZM1016.41,1035.87c0-1.139-1.155-1.53-2.924-1.666-.17,0-1.359-.102-1.495-.119-.204-.017-.392-.034-.562-.068-1.054.357-1.853,1.088-1.853,1.989,0,1.122,1.241,1.683,3.485,1.683,2.141,0,3.348-.782,3.348-1.818ZM1015.697,1028.9c0-1.513-1.055-2.635-2.754-2.635-1.684,0-2.754,1.139-2.754,2.635s1.088,2.584,2.754,2.584,2.754-1.088,2.754-2.584Z" fill="gray" stroke-width="0"/>
      <path d="M1018.418,1030.379c0-3.145,1.887-4.658,3.738-4.658,2.006,0,3.485,1.649,3.485,4.539v.085h-6.595v.102c0,2.278,1.24,4.012,3.093,4.012,1.411,0,2.295-.816,3.009-1.938l.459.306c-.73,1.207-1.802,2.193-3.484,2.193-2.176,0-3.705-1.972-3.705-4.641ZM1024.996,1029.818c-.119-2.142-1.174-3.536-2.84-3.536-1.461,0-2.906,1.156-3.094,3.536h5.934Z" fill="gray" stroke-width="0"/>
      <path d="M1031.949,1022.254h.662v5.592h7.531v-5.592h.662v12.579h-.662v-6.375h-7.531v6.375h-.662v-12.579Z" fill="gray" stroke-width="0"/>
      <path d="M1043.441,1032.844c0-1.887,1.784-3.094,6.203-3.791v-.629c0-1.377-.68-2.142-2.039-2.142-1.564,0-2.584.697-3.434,1.479l-.441-.374c.918-.901,2.141-1.666,3.893-1.666,1.818,0,2.65,1.037,2.65,2.652v4.369c0,1.122.068,1.615.238,2.091h-.662c-.137-.391-.188-.782-.205-1.445-.934.867-2.227,1.649-3.705,1.649-1.598,0-2.498-.816-2.498-2.193ZM1049.645,1032.742v-3.196c-4.402.714-5.574,1.887-5.574,3.264,0,1.088.713,1.666,1.903,1.666,1.462,0,2.821-.85,3.671-1.734Z" fill="gray" stroke-width="0"/>
      <path d="M1053.147,1022.254h.629v12.579h-.629v-12.579Z" fill="gray" stroke-width="0"/>
      <path d="M1056.836,1022.254h.629v12.579h-.629v-12.579Z" fill="gray" stroke-width="0"/>
    </g>
  </g>
<style>
#g-protestOne-Artboard_1-interactions-img rect, #g-protestOne-Artboard_1-interactions-img circle, #g-protestOne-Artboard_1-interactions-img path, #g-protestOne-Artboard_1-interactions-img line, #g-protestOne-Artboard_1-interactions-img polyline, #g-protestOne-Artboard_1-interactions-img polygon { vector-effect: non-scaling-stroke; }
</style>
</svg>
